<svg width="6" height="12" viewBox="0 0 6 12" fill="none" xmlns="http://www.w3.org/2000/svg">
<path d="M0.00218958 6.05018C0.0131608 6.17336 0.063931 6.28995 0.147188 6.38318L4.93658 11.7843C4.98724 11.8451 5.04993 11.8953 5.12091 11.932C5.1919 11.9687 5.26973 11.9911 5.34977 11.9978C5.42981 12.0046 5.51042 11.9955 5.5868 11.9713C5.66319 11.947 5.73378 11.9079 5.79437 11.8565C5.85497 11.805 5.90433 11.7422 5.93952 11.6718C5.9747 11.6014 5.995 11.5247 5.99919 11.4465C6.00337 11.3682 5.99137 11.29 5.9639 11.2163C5.93643 11.1427 5.89405 11.0752 5.83927 11.0179L1.39131 6L5.83927 0.982091C5.89405 0.92477 5.93643 0.857286 5.9639 0.783655C5.99137 0.710024 6.00337 0.63175 5.99919 0.553502C5.995 0.475253 5.9747 0.398634 5.93952 0.328195C5.90433 0.257755 5.85497 0.194943 5.79437 0.143498C5.73378 0.0920532 5.66319 0.0530226 5.5868 0.028742C5.51042 0.00446128 5.42981 -0.00457484 5.34977 0.00216452C5.26973 0.00890387 5.1919 0.0312819 5.12091 0.0679711C5.04993 0.10466 4.98724 0.154907 4.93658 0.21572L0.147188 5.61681C0.0944594 5.67587 0.05445 5.74468 0.0295401 5.81913C0.00463025 5.89358 -0.00467116 5.97216 0.00218958 6.05018Z" fill="#E30613"/>
</svg>
