<svg width="1440" height="850" viewBox="0 0 1440 850" fill="none" xmlns="http://www.w3.org/2000/svg">
<path d="M1501.22 0H-4.21898C-9.62089 0 -14 4.41359 -14 9.85803V1014.81C-14 1020.26 -9.62089 1024.67 -4.21898 1024.67H1501.22C1506.62 1024.67 1511 1020.26 1511 1014.81V9.85803C1511 4.41359 1506.62 0 1501.22 0Z" fill="#E30613"/>
<path d="M1186.35 479.495L1180.68 493.578" stroke="white" stroke-width="2" stroke-miterlimit="10" stroke-linecap="round"/>
<path d="M1196.07 455.469L1190.62 468.932" stroke="white" stroke-width="2" stroke-miterlimit="10" stroke-linecap="round"/>
<path d="M1183.45 472.51L1169.48 466.764" stroke="white" stroke-width="2" stroke-miterlimit="10" stroke-linecap="round"/>
<path d="M1207.26 482.283L1193.9 476.791" stroke="white" stroke-width="2" stroke-miterlimit="10" stroke-linecap="round"/>
<path d="M1290.3 374.662L1294.61 382.52" stroke="white" stroke-width="1.18" stroke-miterlimit="10" stroke-linecap="round"/>
<path d="M1282.96 361.311L1287.07 368.803" stroke="white" stroke-width="1.18" stroke-miterlimit="10" stroke-linecap="round"/>
<path d="M1286.03 373.45L1278.27 377.788" stroke="white" stroke-width="1.18" stroke-miterlimit="10" stroke-linecap="round"/>
<path d="M1299.31 366.014L1291.88 370.183" stroke="white" stroke-width="1.18" stroke-miterlimit="10" stroke-linecap="round"/>
<path d="M1322.97 287.291C1322.98 288.351 1322.67 289.39 1322.09 290.274C1321.51 291.159 1320.68 291.849 1319.71 292.258C1318.74 292.666 1317.67 292.774 1316.64 292.569C1315.6 292.363 1314.65 291.853 1313.91 291.103C1313.17 290.353 1312.66 289.397 1312.46 288.356C1312.25 287.315 1312.36 286.237 1312.77 285.258C1313.17 284.279 1313.86 283.443 1314.73 282.858C1315.61 282.272 1316.64 281.962 1317.69 281.967C1319.09 281.975 1320.43 282.538 1321.42 283.535C1322.41 284.531 1322.97 285.881 1322.97 287.291V287.291Z" stroke="white" stroke-width="2" stroke-miterlimit="10" stroke-linecap="round"/>
<path d="M1309.09 192.063C1309.07 195.484 1308.04 198.822 1306.14 201.655C1304.24 204.489 1301.55 206.692 1298.4 207.985C1295.26 209.279 1291.81 209.606 1288.48 208.925C1285.16 208.244 1282.11 206.586 1279.71 204.159C1277.32 201.732 1275.7 198.645 1275.04 195.288C1274.39 191.931 1274.73 188.454 1276.04 185.295C1277.34 182.137 1279.54 179.438 1282.37 177.54C1285.19 175.641 1288.51 174.628 1291.9 174.628C1294.17 174.628 1296.42 175.08 1298.51 175.957C1300.6 176.835 1302.5 178.121 1304.1 179.741C1305.69 181.362 1306.96 183.285 1307.82 185.399C1308.67 187.514 1309.11 189.778 1309.09 192.063V192.063Z" stroke="white" stroke-width="2" stroke-miterlimit="10" stroke-linecap="round"/>
<path d="M1356.37 545.206C1356.37 548.264 1355.47 551.254 1353.78 553.797C1352.1 556.339 1349.7 558.321 1346.9 559.492C1344.09 560.662 1341.01 560.968 1338.03 560.372C1335.06 559.775 1332.32 558.302 1330.18 556.14C1328.03 553.977 1326.57 551.222 1325.98 548.222C1325.39 545.223 1325.69 542.114 1326.85 539.288C1328.01 536.463 1329.98 534.048 1332.5 532.349C1335.03 530.65 1337.99 529.743 1341.03 529.743C1345.09 529.743 1349 531.372 1351.87 534.272C1354.75 537.172 1356.37 541.105 1356.37 545.206Z" stroke="white" stroke-width="2" stroke-miterlimit="10" stroke-linecap="round"/>
<path d="M1305.74 639.56C1305.74 640.787 1305.38 641.986 1304.7 643.006C1304.02 644.025 1303.06 644.819 1301.94 645.288C1300.81 645.756 1299.57 645.877 1298.38 645.635C1297.19 645.394 1296.09 644.801 1295.23 643.932C1294.37 643.062 1293.79 641.955 1293.56 640.752C1293.32 639.548 1293.45 638.301 1293.92 637.169C1294.39 636.037 1295.18 635.072 1296.19 634.394C1297.21 633.717 1298.4 633.358 1299.62 633.364C1300.42 633.364 1301.22 633.524 1301.97 633.836C1302.71 634.148 1303.39 634.604 1303.95 635.18C1304.52 635.756 1304.97 636.439 1305.28 637.191C1305.59 637.943 1305.74 638.748 1305.74 639.56Z" stroke="white" stroke-width="2" stroke-miterlimit="10" stroke-linecap="round"/>
<path d="M210.987 676.007C225.881 676.007 237.955 663.839 237.955 648.827C237.955 633.816 225.881 621.647 210.987 621.647C196.093 621.647 184.02 633.816 184.02 648.827C184.02 663.839 196.093 676.007 210.987 676.007Z" stroke="white" stroke-width="2" stroke-miterlimit="10" stroke-linecap="round"/>
<path d="M311.595 527.574C311.595 529.64 310.987 531.661 309.848 533.379C308.709 535.098 307.089 536.437 305.195 537.228C303.3 538.019 301.216 538.226 299.205 537.822C297.193 537.419 295.346 536.424 293.896 534.963C292.446 533.501 291.459 531.639 291.059 529.612C290.659 527.585 290.864 525.484 291.649 523.575C292.433 521.666 293.762 520.034 295.467 518.885C297.172 517.737 299.177 517.124 301.227 517.124C302.589 517.124 303.937 517.395 305.195 517.92C306.453 518.445 307.596 519.215 308.558 520.185C309.521 521.155 310.285 522.307 310.806 523.575C311.327 524.843 311.595 526.202 311.595 527.574V527.574Z" stroke="white" stroke-width="2" stroke-miterlimit="10" stroke-linecap="round"/>
<path d="M149.786 355.086C149.786 357.984 148.933 360.817 147.335 363.226C145.737 365.635 143.466 367.512 140.809 368.62C138.152 369.728 135.229 370.016 132.409 369.449C129.589 368.881 127 367.484 124.969 365.432C122.938 363.381 121.556 360.769 120.998 357.926C120.441 355.083 120.733 352.137 121.837 349.462C122.941 346.786 124.808 344.5 127.201 342.894C129.595 341.288 132.407 340.434 135.282 340.44C137.189 340.44 139.078 340.819 140.839 341.555C142.601 342.292 144.201 343.371 145.548 344.731C146.895 346.092 147.963 347.706 148.69 349.483C149.417 351.26 149.79 353.164 149.786 355.086V355.086Z" stroke="white" stroke-width="2" stroke-miterlimit="10" stroke-linecap="round"/>
</svg>
