<svg width="30" height="30" viewBox="0 0 30 30" fill="none" xmlns="http://www.w3.org/2000/svg">
<path d="M0 0.588235V29.4118C0 29.7426 0.257353 30 0.588235 30H29.4118C29.7426 30 30 29.7426 30 29.4118V0.588235C30 0.257353 29.7426 0 29.4118 0H0.588235C0.257353 0 0 0.257353 0 0.588235ZM26.1029 26.6912H3.89706C3.56618 26.6912 3.30882 26.4338 3.30882 26.1029V3.89706C3.30882 3.56618 3.56618 3.30882 3.89706 3.30882H26.0662C26.3971 3.30882 26.6544 3.56618 26.6544 3.89706V26.0662C26.6912 26.3971 26.3971 26.6912 26.1029 26.6912Z" fill="#E30613"/>
<path d="M21.2142 10.2573L19.7068 8.7499C19.4494 8.49255 19.045 8.49255 18.7877 8.7499L15.4053 12.1323C15.148 12.3896 14.7436 12.3896 14.4862 12.1323L11.1039 8.7499C10.8465 8.49255 10.4421 8.49255 10.1847 8.7499L8.67739 10.2573C8.42004 10.5146 8.42004 10.919 8.67739 11.1764L12.0597 14.5587C12.3171 14.8161 12.3171 15.2205 12.0597 15.4778L8.67739 18.8602C8.42004 19.1175 8.42004 19.522 8.67739 19.7793L10.1847 21.2867C10.4421 21.544 10.8465 21.544 11.1039 21.2867L14.4862 17.9043C14.7436 17.647 15.148 17.647 15.4053 17.9043L18.7877 21.2867C19.045 21.544 19.4494 21.544 19.7068 21.2867L21.2142 19.7793C21.4715 19.522 21.4715 19.1175 21.2142 18.8602L17.8318 15.4778C17.5744 15.2205 17.5744 14.8161 17.8318 14.5587L21.2142 11.1764C21.4715 10.919 21.4715 10.5146 21.2142 10.2573Z" fill="#E30613"/>
</svg>
