<svg width="40" height="40" viewBox="0 0 40 40" fill="none" xmlns="http://www.w3.org/2000/svg">
<circle cx="20" cy="20" r="19.5" stroke="#E30613"/>
<path fill-rule="evenodd" clip-rule="evenodd" d="M7.75 10C7.33579 10 7 10.3198 7 10.7143C7 11.1088 7.33579 11.4286 7.75 11.4286H10.3685C10.7034 11.4286 10.9977 11.64 11.0897 11.9466L15.2785 25.9093C15.2811 25.9181 15.284 25.927 15.287 25.9357C15.3426 26.0986 15.4546 26.2302 15.5963 26.3163C15.6464 26.3468 15.7005 26.3717 15.7574 26.3902C15.8396 26.4171 15.9272 26.4305 16.0166 26.4286H27.25C27.5898 26.4286 27.8871 26.211 27.9746 25.8984L30.9746 15.184C31.0347 14.9696 30.9867 14.7408 30.8447 14.5648C30.7028 14.3889 30.483 14.2857 30.25 14.2857H13.3514L12.532 11.5542C12.256 10.6342 11.3731 10 10.3685 10H7.75ZM16.5762 25L13.9762 15.7143H29.2738L26.6738 25H16.5762ZM18.25 27.1429C17.4215 27.1429 16.75 27.7824 16.75 28.5714C16.75 29.3604 17.4215 30 18.25 30C19.0784 30 19.75 29.3604 19.75 28.5714C19.75 27.7824 19.0784 27.1429 18.25 27.1429ZM23.5 28.5714C23.5 27.7824 24.1715 27.1429 25 27.1429C25.8284 27.1429 26.5 27.7824 26.5 28.5714C26.5 29.3604 25.8284 30 25 30C24.1715 30 23.5 29.3604 23.5 28.5714Z" fill="#E30613"/>
</svg>
