<svg width="18" height="19" viewBox="0 0 18 19" fill="none" xmlns="http://www.w3.org/2000/svg">
<path d="M0.633065 15.3941C0.668437 16.2718 1.02385 17.1011 1.62502 17.7087C2.22618 18.3162 3.02657 18.655 3.85887 18.6542H13.6976C14.5299 18.655 15.3303 18.3162 15.9314 17.7087C16.5326 17.1011 16.888 16.2718 16.9234 15.3941L17.5565 0H0L0.633065 15.3941ZM11.1613 3.28992C11.1682 3.06417 11.2599 2.85057 11.416 2.69613C11.5722 2.54168 11.7801 2.45904 11.994 2.46638C12.2078 2.47371 12.4102 2.57043 12.5565 2.73525C12.7028 2.90007 12.7811 3.11949 12.7742 3.34525L12.4073 14.5131C12.3999 14.7337 12.3118 14.9426 12.1613 15.0958C12.0108 15.2491 11.8099 15.3347 11.6008 15.3345C11.4925 15.3346 11.3853 15.3116 11.2855 15.267C11.1858 15.2224 11.0956 15.157 11.0203 15.0748C10.9451 14.9925 10.8863 14.8952 10.8474 14.7884C10.8086 14.6817 10.7906 14.5678 10.7944 14.4535L11.1613 3.28992ZM5.55242 2.47276C5.65867 2.46878 5.76461 2.48702 5.86416 2.52642C5.96371 2.56583 6.05489 2.62562 6.13246 2.70235C6.21004 2.77909 6.27247 2.87126 6.31617 2.97356C6.35987 3.07585 6.38397 3.18626 6.3871 3.29843L6.7621 14.4535C6.76589 14.5678 6.74783 14.6817 6.70901 14.7884C6.67018 14.8952 6.61137 14.9925 6.53611 15.0748C6.46084 15.157 6.37065 15.2224 6.27092 15.267C6.17119 15.3116 6.06397 15.3346 5.95565 15.3345C5.74656 15.3347 5.5456 15.2491 5.39515 15.0958C5.2447 14.9426 5.15651 14.7337 5.14919 14.5131L4.79436 3.34525C4.78875 3.12442 4.8647 2.90994 5.00616 2.74713C5.14762 2.58432 5.3435 2.48594 5.55242 2.47276Z" fill="#E30613"/>
</svg>
