<svg width="20" height="5" viewBox="0 0 20 5" fill="none" xmlns="http://www.w3.org/2000/svg">
<path d="M19.1935 2.94093H13.8185V0.851209C13.8185 0.625454 13.7336 0.408946 13.5823 0.249313C13.4311 0.0896807 13.226 0 13.0121 0H6.9879C6.77402 0 6.56889 0.0896807 6.41766 0.249313C6.26642 0.408946 6.18145 0.625454 6.18145 0.851209V2.94093H0.806452C0.592567 2.94093 0.387443 3.03061 0.236204 3.19024C0.0849654 3.34987 0 3.56638 0 3.79213C0 4.01789 0.0849654 4.2344 0.236204 4.39403C0.387443 4.55366 0.592567 4.64334 0.806452 4.64334H19.1935C19.4074 4.64334 19.6126 4.55366 19.7638 4.39403C19.915 4.2344 20 4.01789 20 3.79213C20 3.56638 19.915 3.34987 19.7638 3.19024C19.6126 3.03061 19.4074 2.94093 19.1935 2.94093ZM7.79436 1.70242H12.2056V2.94093H7.79436V1.70242Z" fill="#E30613"/>
</svg>
