<svg width="28" height="24" viewBox="0 0 28 24" fill="none" xmlns="http://www.w3.org/2000/svg">
<path fill-rule="evenodd" clip-rule="evenodd" d="M0.875 0C0.391751 0 0 0.383756 0 0.857143C0 1.33053 0.391751 1.71429 0.875 1.71429H3.92997C4.32064 1.71429 4.66398 1.96798 4.7713 2.33595L9.65825 19.0911C9.66131 19.1018 9.66464 19.1124 9.66814 19.1229C9.73306 19.3184 9.8637 19.4763 10.0291 19.5795C10.0875 19.6161 10.1506 19.6461 10.2169 19.6683C10.3129 19.7005 10.4151 19.7166 10.5193 19.7143H23.625C24.0215 19.7143 24.3683 19.4532 24.4704 19.078L27.9704 6.22085C28.0405 5.96355 27.9845 5.68897 27.8189 5.47779C27.6532 5.26663 27.3969 5.14286 27.125 5.14286H7.41001L6.45397 1.86501C6.132 0.761084 5.10198 0 3.92997 0H0.875ZM11.1723 18L8.13891 6.85714H25.9861L22.9527 18H11.1723ZM13.125 20.5714C12.1585 20.5714 11.375 21.3389 11.375 22.2857C11.375 23.2325 12.1585 24 13.125 24C14.0915 24 14.875 23.2325 14.875 22.2857C14.875 21.3389 14.0915 20.5714 13.125 20.5714ZM19.25 22.2857C19.25 21.3389 20.0335 20.5714 21 20.5714C21.9665 20.5714 22.75 21.3389 22.75 22.2857C22.75 23.2325 21.9665 24 21 24C20.0335 24 19.25 23.2325 19.25 22.2857Z" fill="white"/>
</svg>
