<svg width="10" height="10" viewBox="0 0 10 10" fill="none" xmlns="http://www.w3.org/2000/svg">
<path d="M5.74434 5L9.84585 0.898477C10.0514 0.69293 10.0514 0.359688 9.84585 0.15416C9.64031 -0.0513868 9.30705 -0.0513868 9.10152 0.15416L4.99999 4.25569L0.898474 0.15416C0.692928 -0.0513868 0.359687 -0.0513868 0.15416 0.15416C-0.0513671 0.359707 -0.0513866 0.69295 0.15416 0.898477L4.25567 5L0.15416 9.10153C-0.0513866 9.30708 -0.0513866 9.64032 0.15416 9.84585C0.359706 10.0514 0.692948 10.0514 0.898474 9.84585L4.99999 5.74432L9.10148 9.84585C9.30703 10.0514 9.64029 10.0514 9.84582 9.84585C10.0513 9.6403 10.0513 9.30706 9.84582 9.10153L5.74434 5Z" fill="#BDBDBD"/>
</svg>
