<svg width="30" height="30" viewBox="0 0 30 30" fill="none" xmlns="http://www.w3.org/2000/svg">
<circle cx="15" cy="15" r="15" fill="#E30613"/>
<path d="M16.6165 15.5L22.7688 9.34772C23.0771 9.0394 23.0771 8.53953 22.7688 8.23124C22.4605 7.92292 21.9606 7.92292 21.6523 8.23124L15.5 14.3835L9.34771 8.23124C9.03939 7.92292 8.53953 7.92292 8.23124 8.23124C7.92295 8.53956 7.92292 9.03942 8.23124 9.34772L14.3835 15.5L8.23124 21.6523C7.92292 21.9606 7.92292 22.4605 8.23124 22.7688C8.53956 23.0771 9.03942 23.0771 9.34771 22.7688L15.5 16.6165L21.6522 22.7688C21.9605 23.0771 22.4604 23.0771 22.7687 22.7688C23.077 22.4604 23.077 21.9606 22.7687 21.6523L16.6165 15.5Z" fill="white"/>
</svg>
