<svg width="30" height="30" viewBox="0 0 30 30" fill="none" xmlns="http://www.w3.org/2000/svg">
<path d="M15 30C23.2843 30 30 23.2843 30 15C30 6.71573 23.2843 0 15 0C6.71573 0 0 6.71573 0 15C0 23.2843 6.71573 30 15 30Z" fill="#E24C4B"/>
<path d="M30 14.9999C30 23.2499 23.25 29.9999 15 29.9999C10.2188 29.9999 6.00003 27.8437 3.28125 24.375C5.8125 26.4375 9.09375 27.6562 12.6562 27.6562C20.9062 27.6562 27.6562 20.9062 27.6562 12.6562C27.6562 9.09375 26.4375 5.81249 24.375 3.28125C27.8438 5.9999 30 10.2186 30 14.9999Z" fill="#D1403F"/>
<path d="M21.8437 21.8437C21.2812 22.4062 20.3437 22.4062 19.7812 21.8437L15 17.0625L10.2187 21.8437C9.65626 22.4062 8.71871 22.4062 8.15623 21.8437C7.59376 21.2812 7.59376 20.3436 8.15623 19.7812L12.9375 15L8.15623 10.2187C7.59376 9.65626 7.59376 8.71871 8.15623 8.15623C8.71871 7.59376 9.65626 7.59376 10.2187 8.15623L15 12.9375L19.7812 8.15623C20.3437 7.59376 21.2812 7.59376 21.8437 8.15623C22.4062 8.71871 22.4062 9.65626 21.8437 10.2187L17.0625 15L21.8437 19.7812C22.4062 20.3436 22.4062 21.2811 21.8437 21.8437Z" fill="white"/>
</svg>
