<svg width="30" height="30" viewBox="0 0 30 30" fill="none" xmlns="http://www.w3.org/2000/svg">
<path d="M28.2128 10.7623C27.2234 10.7623 26.3936 11.5508 26.3936 12.56V15.1775C26.3936 21.3904 21.2872 26.4363 15 26.4363C8.71277 26.4363 3.60638 21.3904 3.60638 15.1775C3.60638 8.99626 8.71277 3.95032 14.9681 3.95032H17.3936C18.383 3.95032 19.2128 3.1619 19.2128 2.15271C19.2128 1.14352 18.4149 0.355092 17.3936 0.355092H15C6.70213 0.323555 0 6.97789 0 15.1775C0 23.3457 6.73404 30 15 30C23.266 30 30 23.3457 30 15.1775V12.56C30 11.5823 29.2021 10.7623 28.2128 10.7623Z" fill="#7CBF65"/>
<path d="M11.8407 10.7624C11.3301 10.1632 10.4364 10.037 9.73432 10.447C8.96836 10.92 8.71304 11.9292 9.19176 12.6861L13.1811 19.4981C13.3407 19.7504 13.5641 19.9712 13.8194 20.1604C14.8088 20.8227 16.1492 20.5704 16.8513 19.5928L16.9152 19.4981L28.4045 2.56271C28.8833 1.86889 28.7556 0.891238 28.0535 0.355106C27.3513 -0.212562 26.2981 -0.0864132 25.7556 0.638941L14.9684 14.263L11.8407 10.7624Z" fill="#7CBF65"/>
</svg>
