<svg width="30" height="30" viewBox="0 0 30 30" fill="none" xmlns="http://www.w3.org/2000/svg">
<path d="M19.4706 7.98145H10.5292C9.10204 7.98145 7.94092 9.14257 7.94092 10.5697V19.5111C7.94092 20.9383 9.10204 22.0997 10.5292 22.0997H19.4706C20.8978 22.0997 22.0592 20.9386 22.0592 19.5111V10.5697C22.0592 9.14257 20.8981 7.98145 19.4706 7.98145ZM14.9999 19.6883C12.4373 19.6883 10.3524 17.6033 10.3524 15.0404C10.3524 12.4779 12.4373 10.3929 14.9999 10.3929C17.5628 10.3929 19.6477 12.4779 19.6477 15.0404C19.6477 17.603 17.5625 19.6883 14.9999 19.6883ZM19.7971 11.3538C19.1905 11.3538 18.6972 10.8605 18.6972 10.2542C18.6972 9.64793 19.1905 9.1546 19.7971 9.1546C20.4034 9.1546 20.8968 9.64793 20.8968 10.2542C20.8968 10.8605 20.4034 11.3538 19.7971 11.3538Z" fill="white"/>
<path d="M15 12.3567C13.5207 12.3567 12.3162 13.5606 12.3162 15.0399C12.3162 16.5199 13.5207 17.7241 15 17.7241C16.48 17.7241 17.6836 16.5199 17.6836 15.0399C17.6836 13.5609 16.4797 12.3567 15 12.3567Z" fill="white"/>
<path d="M15 0C6.71606 0 0 6.71606 0 15C0 23.2839 6.71606 30 15 30C23.2839 30 30 23.2839 30 15C30 6.71606 23.2839 0 15 0ZM24.0229 19.5111C24.0229 22.0215 21.9811 24.0634 19.4707 24.0634H10.5293C8.01923 24.0634 5.97707 22.0215 5.97707 19.5111V10.5698C5.97707 8.05967 8.01923 6.01751 10.5293 6.01751H19.4707C21.9811 6.01751 24.0229 8.05967 24.0229 10.5698V19.5111Z" fill="white"/>
</svg>
