<svg width="30" height="20" viewBox="0 0 30 20" fill="none" xmlns="http://www.w3.org/2000/svg">
<path d="M2.25 0C1.95136 0 1.66653 0.0565 1.40625 0.15625L14.168 11.4509C14.726 11.9443 15.2493 11.9445 15.8086 11.4509L28.5938 0.15625C28.3335 0.0565 28.0486 0 27.75 0H2.25ZM0.0234375 1.85268C0.0102788 1.94679 0 2.04521 0 2.14286V17.8571C0 19.0443 1.00352 20 2.25 20H27.75C28.9965 20 30 19.0443 30 17.8571V2.14286C30 2.04521 29.9897 1.94679 29.9766 1.85268L17.332 13.0134C16.0182 14.1729 13.9582 14.1747 12.6445 13.0134L0.0234371 1.85268H0.0234375Z" fill="#E30613"/>
</svg>
