<svg width="25" height="25" viewBox="0 0 25 25" fill="none" xmlns="http://www.w3.org/2000/svg">
<path d="M22.587 23.8365C22.087 24.6006 21.2184 25.0485 20.2972 24.9958C19.376 24.9431 18.1916 24.8114 17.3756 24.6006C13.7435 23.6521 9.97972 21.3861 6.795 18.198C3.61027 15.0099 1.34673 11.2421 0.39921 7.6061C0.18865 6.78931 0.0833696 5.63 0.00440939 4.70782C-0.0482307 3.81199 0.372903 2.94251 1.13618 2.44189L4.37355 0.281352C5.21579 -0.271957 6.34756 0.0178615 6.795 0.913695L9.427 5.99888C9.79548 6.71028 9.61124 7.60611 8.97956 8.10672L6.61075 9.95109C7.55828 11.7164 8.45315 13.1392 10.1903 14.8518C11.7958 16.459 13.1908 17.4076 15.0068 18.3825L16.8756 15.9848C17.3757 15.3524 18.2705 15.1416 18.9812 15.5369L24.0873 18.1717C24.9821 18.6196 25.2717 19.7526 24.719 20.5957L22.587 23.8365Z" fill="#E30613"/>
</svg>
