<svg width="25" height="30" viewBox="0 0 25 30" fill="none" xmlns="http://www.w3.org/2000/svg">
<path d="M12.5083 9.62772e-06C10.8651 -0.00189625 9.23756 0.279179 7.719 0.827134C6.20044 1.37509 4.82067 2.17916 3.65873 3.19327C2.4968 4.20739 1.57553 5.41162 0.9477 6.73699C0.319873 8.06236 -0.00217266 9.48282 1.10311e-05 10.917C1.10311e-05 16.9402 12.5083 30 12.5083 30C12.5083 30 25 16.9691 25 10.917C25.0022 9.48404 24.6807 8.06476 24.0539 6.74034C23.4271 5.41592 22.5073 4.21232 21.3471 3.1984C20.1869 2.18447 18.8091 1.3801 17.2925 0.831297C15.7759 0.282489 14.1501 8.36411e-06 12.5083 9.62772e-06ZM12.5083 14.0155C11.5791 14.0183 10.6698 13.7804 9.89553 13.3319C9.1213 12.8835 8.51698 12.2445 8.1591 11.4961C7.80122 10.7476 7.70588 9.92328 7.88515 9.12749C8.06442 8.33171 8.51024 7.60025 9.16614 7.02576C9.82205 6.45126 10.6585 6.05957 11.5697 5.9003C12.4808 5.74102 13.4256 5.82131 14.2845 6.13101C15.1433 6.44071 15.8775 6.96588 16.3941 7.64002C16.9107 8.31416 17.1865 9.10694 17.1865 9.91796C17.1886 10.4554 17.0693 10.9879 16.8351 11.4849C16.601 11.982 16.2568 12.4338 15.8221 12.8144C15.3875 13.1951 14.8711 13.4972 14.3024 13.7033C13.7337 13.9094 13.124 14.0155 12.5083 14.0155Z" fill="#E30613"/>
</svg>
