<svg width="20" height="18" viewBox="0 0 20 18" fill="none" xmlns="http://www.w3.org/2000/svg">
<path d="M18.5408 1.90123C17.5543 0.781934 16.1859 0.165527 14.6875 0.165527C12.5802 0.165527 11.246 1.42412 10.4979 2.47998C10.3038 2.75397 10.1386 3.02869 10 3.28721C9.86137 3.02869 9.69629 2.75397 9.50215 2.47998C8.75402 1.42412 7.41984 0.165527 5.3125 0.165527C3.81414 0.165527 2.44566 0.781973 1.45918 1.90127C0.518242 2.969 0 4.399 0 5.92783C0 7.59201 0.649727 9.13986 2.04473 10.7989C3.29148 12.2817 5.08512 13.8102 7.16211 15.5801C7.93605 16.2396 8.73641 16.9216 9.58848 17.6671L9.61406 17.6896C9.72453 17.7863 9.86227 17.8346 10 17.8346C10.1377 17.8346 10.2755 17.7862 10.3859 17.6896L10.4115 17.6671C11.2636 16.9216 12.0639 16.2396 12.838 15.58C14.9149 13.8102 16.7085 12.2818 17.9553 10.7989C19.3503 9.13982 20 7.59201 20 5.92783C20 4.399 19.4818 2.969 18.5408 1.90123ZM12.0779 14.6881C11.4107 15.2566 10.724 15.8417 10 16.4712C9.27602 15.8418 8.58934 15.2567 7.92203 14.688C3.85723 11.2242 1.17188 8.93592 1.17188 5.92783C1.17188 4.68447 1.58613 3.52963 2.33836 2.67607C3.09922 1.81283 4.15543 1.3374 5.3125 1.3374C6.9191 1.3374 7.95766 2.32717 8.54594 3.15748C9.07363 3.90217 9.34898 4.65287 9.44289 4.94104C9.52145 5.18225 9.74633 5.34549 10 5.34549C10.2537 5.34549 10.4786 5.18225 10.5571 4.94104C10.651 4.65287 10.9264 3.90217 11.4541 3.15744C12.0423 2.32717 13.0809 1.3374 14.6875 1.3374C15.8446 1.3374 16.9008 1.81283 17.6616 2.67607C18.4139 3.52963 18.8281 4.68447 18.8281 5.92783C18.8281 8.93592 16.1428 11.2242 12.0779 14.6881Z" fill="#BDBDBD"/>
</svg>
