<svg width="651" height="653" viewBox="0 0 651 653" fill="none" xmlns="http://www.w3.org/2000/svg">
<path d="M375.039 652.952C523.051 652.952 643.039 638.849 643.039 621.452C643.039 604.055 523.051 589.952 375.039 589.952C227.027 589.952 107.039 604.055 107.039 621.452C107.039 638.849 227.027 652.952 375.039 652.952Z" fill="#3D0517"/>
<path d="M630.941 630.952C638.797 627.96 643.039 624.802 643.039 621.527C643.039 604.09 523.084 589.952 375.109 589.952C227.134 589.952 107.039 604.09 107.039 621.527C107.039 624.802 111.282 627.96 119.16 630.952C153.124 618.11 254.827 608.779 374.992 608.779C495.158 608.779 597.048 618.11 630.941 630.952Z" fill="url(#paint0_linear)"/>
<path d="M332.957 427.28C333.143 417.495 341.392 399.779 349.082 402.172C356.772 404.566 351.669 419.724 355.887 432.443C360.105 445.161 369.659 450.746 372.199 468.439C375.275 490.05 370.964 511.216 376.277 543.88C381.59 576.544 394.919 624.061 408.039 651.821C398.438 651.821 353.347 652.196 332.561 651.68C328.343 615.308 324.847 568.19 324.078 529.519C323.309 490.144 334.099 466.702 333.283 450.534C332.63 437.394 332.887 431.504 332.957 427.28Z" fill="url(#paint1_linear)"/>
<path d="M360.723 522.555C365.589 522.201 370.734 503.014 361.003 497.622C367.196 496.516 370.944 473.914 360.444 468.97C369.757 448.77 356.137 439.447 332.879 438.952C332.879 442.107 333.042 446.015 333.274 450.865C334.089 467.087 323.31 490.606 324.078 530.112C324.265 539.341 324.614 548.947 325.079 558.952C362.26 554.456 366.241 535.856 360.723 522.555Z" fill="#F2B36E"/>
<path d="M308.039 369.952V578.204C308.039 579.878 308.362 581.536 308.991 583.083C309.619 584.629 310.54 586.035 311.7 587.218C312.861 588.402 314.239 589.341 315.756 589.982C317.272 590.623 318.898 590.952 320.539 590.952C322.181 590.952 323.806 590.623 325.323 589.982C326.839 589.341 328.217 588.402 329.378 587.218C330.539 586.035 331.459 584.629 332.088 583.083C332.716 581.536 333.039 579.878 333.039 578.204V369.952H308.039Z" fill="#BE6C00"/>
<path d="M333.039 369.952H308.039V392.952H333.039V369.952Z" fill="#672300"/>
<path d="M308.039 435.554V549.676C308.039 556.711 333.039 556.711 333.039 549.676V435.554C333.039 431.356 308.039 430.183 308.039 435.554Z" fill="#672300"/>
<path d="M304.087 443.613C295.325 444.907 290.475 448.764 289.467 453.585C287.265 464.146 294.364 470.049 292.607 475.435C290.85 480.821 290.451 488.818 293.192 493.357C294.368 495.136 295.111 497.167 295.363 499.287C295.616 501.407 295.37 503.556 294.645 505.563C292.911 510.785 294.177 513.819 297.691 518.146C300.268 521.345 300.315 524.379 299.284 529.271C298.581 532.493 297.902 543.383 317.7 544.723C337.497 546.064 352.703 541.454 356.92 532.728C357.838 531.004 358.198 529.036 357.951 527.097C357.703 525.158 356.86 523.345 355.538 521.909C359.029 519.557 364.113 505.681 356.124 497.684C363.902 493.827 364.933 471.813 353.593 469.155C360.341 465.416 364.699 447.376 347.361 444.107C333.076 441.411 318.43 441.244 304.087 443.613Z" fill="#FDD087"/>
<g opacity="0.68">
<path opacity="0.68" d="M357.144 498.906C356.746 498.35 356.301 497.831 355.814 497.353C356.71 496.923 357.506 496.306 358.147 495.542L321.512 497.494L357.144 498.906Z" fill="#F2B36E"/>
<path opacity="0.68" d="M357.054 470.73C355.978 469.79 354.687 469.136 353.297 468.825C354.082 468.357 354.79 467.77 355.397 467.085L316.988 469.061L357.054 470.73Z" fill="#F2B36E"/>
<path opacity="0.68" d="M355.233 521.578C355.773 521.16 356.246 520.66 356.633 520.096L330.148 521.507L356.073 522.542C355.837 522.184 355.554 521.86 355.233 521.578Z" fill="#F2B36E"/>
</g>
<path d="M356.114 494.839C363.905 490.995 364.938 469.06 353.579 466.411C360.338 462.685 364.703 444.71 347.337 441.452C343.957 440.796 340.578 440.304 337.175 439.952C356.724 445.483 359.705 461.677 342.01 466.857C356.302 470.255 359.306 489.66 347.994 494.98C355.457 499.01 356.748 514.15 349.261 519.048C360.104 531.797 321.968 537.023 299.039 530.25C299.626 534.68 303.146 540.726 317.626 541.71C337.457 543.093 352.688 538.476 356.912 529.758C357.831 528.04 358.192 526.079 357.944 524.147C357.696 522.215 356.851 520.408 355.527 518.978C359.024 516.658 364.117 502.877 356.114 494.839Z" fill="#F2B36E"/>
<path d="M299.039 530.666C299.298 532.279 299.91 533.814 300.829 535.156C301.749 536.497 302.954 537.613 304.354 538.42C307.154 540.009 310.24 541.011 313.429 541.366C319.814 542.088 326.26 542.088 332.645 541.366C338.997 540.822 345.139 538.789 350.586 535.426C353.175 533.723 355.135 531.195 356.156 528.238C356.606 526.817 356.676 525.299 356.358 523.841C356.04 522.383 355.345 521.038 354.346 519.942L353.672 519.259L354.438 518.622C355.893 517.201 356.964 515.424 357.548 513.461C358.251 511.449 358.673 509.347 358.802 507.216C358.992 505.117 358.743 503 358.071 501.006C357.399 499.012 356.319 497.184 354.903 495.644L354.137 494.842L355.135 494.3C357.296 492.824 358.849 490.593 359.498 488.031C360.298 485.409 360.651 482.667 360.542 479.924C360.487 477.179 359.829 474.482 358.616 472.029C358.064 470.826 357.258 469.761 356.255 468.91C355.252 468.058 354.077 467.442 352.814 467.103L351.235 466.726L352.651 465.877C354.051 464.871 355.24 463.593 356.148 462.116C357.057 460.639 357.667 458.993 357.943 457.275C358.291 455.537 358.338 453.75 358.082 451.996C357.78 450.299 357.114 448.689 356.133 447.282C353.962 444.412 350.819 442.463 347.313 441.814C343.809 441.084 340.235 440.589 336.684 439.952C340.235 440.447 343.832 440.801 347.406 441.414C351.059 441.964 354.373 443.891 356.69 446.811C357.799 448.345 358.578 450.098 358.978 451.958C359.378 453.817 359.389 455.741 359.01 457.605C358.723 459.491 358.063 461.298 357.07 462.919C356.077 464.539 354.771 465.938 353.231 467.032L353.069 465.807C354.532 466.162 355.9 466.84 357.075 467.793C358.25 468.747 359.204 469.951 359.869 471.321C361.215 473.962 361.946 476.881 362.004 479.853C362.157 482.784 361.804 485.719 360.96 488.526C360.204 491.524 358.365 494.124 355.808 495.809L356.017 494.465C357.653 496.144 358.884 498.185 359.614 500.428C360.349 502.641 360.64 504.981 360.473 507.31C360.336 509.614 359.867 511.885 359.08 514.05C358.372 516.342 357.074 518.401 355.32 520.013V518.693C356.541 520.007 357.39 521.631 357.778 523.394C358.166 525.157 358.079 526.993 357.525 528.71C356.392 531.999 354.201 534.805 351.305 536.676C345.675 540.132 339.305 542.153 332.738 542.568C329.492 542.897 326.228 543.015 322.967 542.921C319.718 542.892 316.475 542.616 313.266 542.096C310.019 541.608 306.901 540.462 304.099 538.726C302.717 537.85 301.546 536.672 300.671 535.277C299.795 533.883 299.238 532.307 299.039 530.666Z" fill="#CB8940"/>
<path d="M354.039 466.23C349.442 467.005 344.704 467.158 340.039 466.681C342.328 466.272 344.665 466.039 347.015 465.986C349.361 465.899 351.713 465.981 354.039 466.23Z" fill="#CB8940"/>
<path d="M357.039 494.499C352.442 496.059 347.704 496.366 343.039 495.406C347.636 493.846 352.374 493.539 357.039 494.499Z" fill="#CB8940"/>
<path d="M356.039 518.972C351.737 520.279 347.341 520.279 343.039 518.972C347.338 517.612 351.74 517.612 356.039 518.972Z" fill="#CB8940"/>
<path d="M330.039 622.952C330.899 632.328 331.828 641.236 332.803 649.651C353.523 650.166 398.469 649.885 408.039 649.791C405.321 643.955 402.58 637.227 399.909 629.961C373.615 632.516 345.672 630.008 330.039 622.952Z" fill="#E4A04E"/>
<path d="M593.98 2.31021L27.1819 50.4811C12.1698 51.757 1.0262 65.0568 2.29208 80.1872L26.5835 370.528C27.8494 385.658 41.0453 396.89 56.0575 395.614L622.855 347.443C637.867 346.167 649.011 332.867 647.745 317.737L623.454 27.396C622.188 12.2656 608.992 1.03435 593.98 2.31021Z" fill="white"/>
<path d="M580.943 16.399L42.3508 62.1729C28.2118 63.3745 17.7165 75.9007 18.9088 90.151L41.31 357.9C42.5023 372.15 54.9306 382.728 69.0695 381.527L607.662 335.753C621.801 334.551 632.297 322.025 631.104 307.775L608.703 40.0256C607.511 25.7754 595.082 15.1974 580.943 16.399Z" stroke="black" stroke-width="0.95" stroke-miterlimit="10"/>
<g opacity="0.51">
<path opacity="0.51" d="M400.569 18.7142L87.0195 392.965L211.557 382.382L525.084 8.13086L400.569 18.7142Z" fill="white"/>
<path opacity="0.51" d="M547.202 6.24914L233.676 380.5L274.232 377.043L587.781 2.81543L547.202 6.24914Z" fill="white"/>
<path opacity="0.51" d="M341.95 23.6999L35.9609 388.943C38.71 391.335 41.9052 393.149 45.3593 394.28C48.8133 395.411 52.4567 395.835 56.0756 395.528L69.0497 394.423L382.6 20.2427L341.95 23.6999Z" fill="white"/>
</g>
<path d="M218.848 278.526L222.648 323.985L203.282 325.619L205.769 355.475L156.501 359.671L154.014 329.816L69.0584 337.054L65.2578 291.566L113.045 166.707L167.847 162.004L119.5 286.919L150.241 284.3L147.279 249.318L196.519 245.121L199.481 280.3L218.848 278.526Z" fill="#E30613"/>
<path d="M373.031 315.507C360.455 335.223 341.536 346.152 316.273 348.292C291.01 350.433 270.516 342.856 254.792 325.562C239.105 308.269 229.976 284.187 227.405 253.317C224.834 222.447 229.827 197.164 242.384 177.467C254.96 157.75 273.879 146.822 299.142 144.682C324.405 142.541 344.899 150.118 360.623 167.411C376.272 184.705 385.392 208.787 387.982 239.657C390.571 270.526 385.588 295.81 373.031 315.507ZM277.065 249.092C280.027 284.619 291.755 301.518 312.249 299.791C332.742 298.063 341.508 279.427 338.546 243.882C335.583 208.355 323.856 191.456 303.362 193.183C282.868 194.911 274.103 213.547 277.065 249.092Z" fill="#E30613"/>
<path d="M555.91 249.853L559.739 295.313L540.344 296.974L542.859 326.83L493.591 330.999L491.104 301.171L406.121 308.466L402.32 263.006L450.135 138.147L504.909 133.5L456.563 258.387L487.303 255.768L484.369 220.645L533.637 216.448L536.572 251.599L555.91 249.853Z" fill="#E30613"/>
<path d="M222.125 112.306L235.651 111.18L236.461 120.812L212.512 122.84L209.438 86.2247L233.135 84.1968L233.918 93.745L220.644 94.8716L220.979 98.8712L232.968 97.8572L233.75 107.293L221.762 108.307L222.125 112.306Z" fill="#020202"/>
<path d="M284.381 116.812L277.646 105.743L275.047 105.969L275.997 117.517L265.601 118.39L262.527 81.7741L277.087 80.5348C280.711 80.1249 284.352 81.1332 287.259 83.3514C288.657 84.4082 289.803 85.7653 290.615 87.3243C291.427 88.8833 291.885 90.605 291.954 92.3644C292.164 94.4025 291.832 96.4602 290.992 98.3262C290.152 100.192 288.835 101.799 287.176 102.983L295.559 116.052L284.381 116.812ZM273.734 90.4492L274.293 97.2653L278.261 96.9273C278.734 96.9304 279.204 96.8372 279.641 96.6533C280.077 96.4694 280.473 96.1986 280.804 95.857C281.117 95.5116 281.348 95.0986 281.479 94.6495C281.61 94.2004 281.637 93.7271 281.558 93.2657C281.549 92.7963 281.439 92.3344 281.237 91.9115C281.034 91.4887 280.744 91.1148 280.385 90.8153C279.991 90.5121 279.54 90.2933 279.06 90.1722C278.579 90.0511 278.079 90.0303 277.59 90.1112L273.734 90.4492Z" fill="#020202"/>
<path d="M341.9 111.912L335.166 100.871L332.539 101.096L333.517 112.616L323.121 113.518L320.047 76.902L334.607 75.6627C338.23 75.2528 341.872 76.2611 344.779 78.4793C346.177 79.5418 347.323 80.9041 348.135 82.4677C348.947 84.0313 349.404 85.7571 349.474 87.5205C349.684 89.5724 349.346 91.6437 348.496 93.5199C347.642 95.3543 346.333 96.9357 344.695 98.1109L353.079 111.18L341.9 111.912ZM331.253 85.5489L331.812 92.3651L335.78 92.0271C336.252 92.0355 336.721 91.9475 337.158 91.7683C337.595 91.5892 337.991 91.3227 338.323 90.9849C338.637 90.6342 338.868 90.2162 338.999 89.7625C339.13 89.3089 339.157 88.8312 339.078 88.3655C339.067 87.8964 338.956 87.4351 338.754 87.0125C338.551 86.5899 338.262 86.2158 337.904 85.9151C337.508 85.6162 337.057 85.4 336.577 85.2791C336.097 85.1582 335.598 85.135 335.11 85.2109L331.253 85.5489Z" fill="#020202"/>
<path d="M411.427 101.321C408.032 105.189 403.289 107.589 398.184 108.025C393.079 108.46 388.003 106.896 384.012 103.659C382.08 102.018 380.489 100.008 379.328 97.7466C378.168 95.4848 377.461 93.0146 377.248 90.4773C377.035 87.94 377.321 85.3852 378.088 82.9592C378.855 80.5331 380.09 78.2833 381.72 76.3382C385.115 72.471 389.858 70.0704 394.963 69.635C400.068 69.1997 405.144 70.7631 409.135 74.0005C413.023 77.3241 415.446 82.0643 415.876 87.1842C416.305 92.3041 414.706 97.387 411.427 101.321ZM390.719 95.6881C392.587 97.1764 394.948 97.8912 397.32 97.6872C399.693 97.4831 401.899 96.3754 403.49 94.5897C404.964 92.7322 405.673 90.3744 405.471 88.0046C405.268 85.6347 404.168 83.4342 402.4 81.8587C401.499 81.0909 400.452 80.5173 399.322 80.1733C398.192 79.8294 397.005 79.7224 395.833 79.859C394.651 79.9213 393.493 80.2256 392.431 80.7534C391.37 81.2813 390.426 82.0215 389.657 82.929C388.184 84.7903 387.473 87.149 387.671 89.5214C387.868 91.8938 388.959 94.1002 390.719 95.6881Z" fill="#020202"/>
<path d="M465.08 101.433L458.345 90.3924L455.746 90.6177L456.696 102.138L446.301 103.039L443.227 66.4233L457.786 65.184C461.419 64.7754 465.068 65.7832 467.987 68.0006C469.352 69.043 470.479 70.3703 471.289 71.8918C472.099 73.4132 472.574 75.0931 472.681 76.8165C472.892 78.8684 472.554 80.9396 471.703 82.8158C470.859 84.6484 469.56 86.2299 467.931 87.4068L476.314 100.476L465.08 101.433ZM454.433 75.0702L455.02 81.9145L458.96 81.5765C459.922 81.5657 460.842 81.1824 461.531 80.5062C461.831 80.1525 462.054 79.7387 462.184 79.2921C462.314 78.8454 462.349 78.3761 462.286 77.915C462.265 77.4436 462.15 76.9813 461.948 76.5555C461.747 76.1298 461.462 75.7492 461.112 75.4364C460.715 75.1389 460.264 74.9235 459.784 74.8026C459.305 74.6818 458.806 74.6579 458.317 74.7322L454.433 75.0702Z" fill="#020202"/>
<defs>
<linearGradient id="paint0_linear" x1="107.249" y1="610.452" x2="643.132" y2="610.452" gradientUnits="userSpaceOnUse">
<stop stop-color="#410820"/>
<stop offset="0.52" stop-color="#8C0031"/>
<stop offset="1" stop-color="#410820"/>
</linearGradient>
<linearGradient id="paint1_linear" x1="381.217" y1="497.489" x2="348.592" y2="619.725" gradientUnits="userSpaceOnUse">
<stop stop-color="#FDD087"/>
<stop offset="1" stop-color="#F2BD76"/>
</linearGradient>
</defs>
</svg>
