<svg width="26" height="22" viewBox="0 0 26 22" fill="none" xmlns="http://www.w3.org/2000/svg">
<path d="M24.103 2.16115C22.8206 0.767496 21.0416 0 19.0938 0C16.3542 0 14.6198 1.56709 13.6472 2.88176C13.3949 3.2229 13.1802 3.56497 13 3.88685C12.8198 3.56497 12.6052 3.2229 12.3528 2.88176C11.3802 1.56709 9.6458 0 6.90625 0C4.95838 0 3.17936 0.767545 1.89693 2.1612C0.673715 3.49065 0 5.27116 0 7.17473C0 9.24682 0.844644 11.1741 2.65814 13.2398C4.27893 15.0861 6.61065 16.9891 9.31074 19.1929C10.3169 20.014 11.3573 20.8633 12.465 21.7915L12.4983 21.8194C12.6419 21.9398 12.8209 22 13 22C13.1791 22 13.3581 21.9398 13.5017 21.8194L13.535 21.7915C14.6427 20.8633 15.6831 20.0141 16.6894 19.1928C19.3893 16.9892 21.7211 15.0861 23.3419 13.2398C25.1554 11.174 26 9.24682 26 7.17473C26 5.27116 25.3263 3.49065 24.103 2.16115ZM15.7012 18.0823C14.8339 18.7901 13.9412 19.5187 13 20.3024C12.0588 19.5188 11.1661 18.7902 10.2986 18.0822C5.01439 13.7694 1.52344 10.9201 1.52344 7.17473C1.52344 5.6266 2.06197 4.18869 3.03987 3.12592C4.02898 2.05108 5.40206 1.45912 6.90625 1.45912C8.99483 1.45912 10.345 2.69149 11.1097 3.72532C11.7957 4.65254 12.1537 5.58726 12.2758 5.94605C12.3779 6.24639 12.6702 6.44964 13 6.44964C13.3298 6.44964 13.6221 6.24639 13.7242 5.94605C13.8463 5.58726 14.2043 4.65254 14.8903 3.72527C15.655 2.69149 17.0052 1.45912 19.0938 1.45912C20.5979 1.45912 21.971 2.05108 22.9601 3.12592C23.938 4.18869 24.4766 5.6266 24.4766 7.17473C24.4766 10.9201 20.9856 13.7694 15.7012 18.0823Z" fill="white"/>
</svg>
