<svg width="25" height="22" viewBox="0 0 25 22" fill="none" xmlns="http://www.w3.org/2000/svg">
<path d="M12.108 21.8703C12.2221 21.9546 12.3593 22 12.5 22C12.6407 22 12.7779 21.9546 12.892 21.8703C15.0149 20.3102 25 12.6354 25 6.3108C25 -0.55228 15.6539 -2.52421 12.7489 3.95614C12.7255 4.00534 12.6891 4.04681 12.6437 4.07582C12.5984 4.10483 12.5461 4.12021 12.4926 4.12021C12.4392 4.12021 12.3869 4.10483 12.3416 4.07582C12.2962 4.04681 12.2598 4.00534 12.2364 3.95614C9.2667 -2.44585 0 -0.550271 0 6.3108C0 12.6354 9.9851 20.3102 12.108 21.8703Z" fill="#E30613"/>
</svg>
