<svg width="40" height="40" viewBox="0 0 40 40" fill="none" xmlns="http://www.w3.org/2000/svg">
<circle cx="20" cy="20" r="20" fill="white"/>
<path d="M29 29.0909C29 29.593 28.5523 30 28 30C27.4477 30 27 29.593 27 29.0909C27 25.5764 23.866 22.7273 20 22.7273C16.134 22.7273 13 25.5764 13 29.0909C13 29.593 12.5523 30 12 30C11.4477 30 11 29.593 11 29.0909C11 24.5722 15.0294 20.9091 20 20.9091C24.9706 20.9091 29 24.5722 29 29.0909ZM20 20C16.9624 20 14.5 17.7614 14.5 15C14.5 12.2386 16.9624 10 20 10C23.0376 10 25.5 12.2386 25.5 15C25.5 17.7614 23.0376 20 20 20ZM20 18.1818C21.933 18.1818 23.5 16.7573 23.5 15C23.5 13.2427 21.933 11.8182 20 11.8182C18.067 11.8182 16.5 13.2427 16.5 15C16.5 16.7573 18.067 18.1818 20 18.1818Z" fill="#E30613"/>
</svg>
