<svg width="375" height="380" viewBox="0 0 375 380" fill="none" xmlns="http://www.w3.org/2000/svg">
<path d="M345.523 -46.3719L-71.9258 211.86L-49.6914 248.371L367.758 -9.86025L345.523 -46.3719Z" fill="url(#paint0_linear)"/>
<path d="M20.9854 198.371L1.89844 210.201L3.74286 171.36L22.8298 159.559L20.9854 198.371Z" fill="#3D2600"/>
<path d="M56.1416 176.627L37.0547 188.457L38.8712 149.644L57.9861 137.814L56.1416 176.627Z" fill="#3D2600"/>
<path d="M91.2985 154.912L72.1836 166.713L74.028 127.901L93.1429 116.071L91.2985 154.912Z" fill="#3D2600"/>
<path d="M126.451 133.168L107.336 144.969L109.18 106.157L128.295 94.3555L126.451 133.168Z" fill="#3D2600"/>
<path d="M161.583 111.424L142.496 123.225L144.341 84.4128L163.427 72.6113L161.583 111.424Z" fill="#3D2600"/>
<path d="M196.735 89.6797L177.648 101.481L179.493 62.6687L198.58 50.8672L196.735 89.6797Z" fill="#3D2600"/>
<path d="M231.892 67.9363L212.805 79.7659L214.621 40.9252L233.736 29.1238L231.892 67.9363Z" fill="#3D2600"/>
<path d="M267.045 46.2203L247.93 58.0217L249.774 19.2093L268.889 7.37964L267.045 46.2203Z" fill="#3D2600"/>
<path d="M302.201 24.4759L283.086 36.2774L284.93 -2.53511L304.017 -14.3647L302.201 24.4759Z" fill="#3D2600"/>
<path d="M337.333 2.73167L318.246 14.5331L320.091 -24.2793L339.177 -36.0808L337.333 2.73167Z" fill="#3D2600"/>
<path d="M230.2 -43.8842L-75.4922 341.835L-42.2469 368.529L263.445 -17.1901L230.2 -43.8842Z" fill="url(#paint1_linear)"/>
<path d="M7.35071 297.29L-6.62217 314.95L-17.9961 277.799L-4.02321 260.139L7.35071 297.29Z" fill="#3D2600"/>
<path d="M33.0577 264.787L19.0849 282.447L7.71094 245.324L21.6838 227.665L33.0577 264.787Z" fill="#3D2600"/>
<path d="M58.7921 232.283L44.8192 249.943L33.4453 212.821L47.4182 195.161L58.7921 232.283Z" fill="#3D2600"/>
<path d="M84.507 199.808L70.5341 217.468L59.1602 180.317L73.133 162.657L84.507 199.808Z" fill="#3D2600"/>
<path d="M110.214 167.304L96.2411 184.964L84.8672 147.842L98.8401 130.182L110.214 167.304Z" fill="#3D2600"/>
<path d="M135.957 134.801L121.956 152.461L110.582 115.339L124.583 97.6787L135.957 134.801Z" fill="#3D2600"/>
<path d="M161.663 102.326L147.69 119.986L136.316 82.8354L150.289 65.2036L161.663 102.326Z" fill="#3D2600"/>
<path d="M187.374 69.8232L173.401 87.4832L162.027 50.3606L176 32.7007L187.374 69.8232Z" fill="#3D2600"/>
<path d="M213.081 37.348L199.108 54.9798L187.734 17.8572L201.707 0.197266L213.081 37.348Z" fill="#3D2600"/>
<path d="M238.824 4.84445L224.851 22.5044L213.449 -14.6463L227.45 -32.2781L238.824 4.84445Z" fill="#3D2600"/>
<defs>
<linearGradient id="paint0_linear" x1="12261.7" y1="143806" x2="85740.9" y2="99059.5" gradientUnits="userSpaceOnUse">
<stop stop-color="#FFBC00"/>
<stop offset="1" stop-color="#FFFF00"/>
</linearGradient>
<linearGradient id="paint1_linear" x1="-230844" y1="616159" x2="-176837" y2="548898" gradientUnits="userSpaceOnUse">
<stop stop-color="#FFBC00"/>
<stop offset="1" stop-color="#FFFF00"/>
</linearGradient>
</defs>
</svg>
