<svg width="45" height="78" viewBox="0 0 45 78" fill="none" xmlns="http://www.w3.org/2000/svg">
<path d="M21.2166 76.1556C24.5523 76.1556 27.2564 73.4302 27.2564 70.0682C27.2564 66.7062 24.5523 63.9808 21.2166 63.9808C17.8809 63.9808 15.1768 66.7062 15.1768 70.0682C15.1768 73.4302 17.8809 76.1556 21.2166 76.1556Z" stroke="white" stroke-width="2" stroke-miterlimit="10" stroke-linecap="round"/>
<path d="M43.7486 42.9116C43.7486 43.3745 43.6124 43.8269 43.3573 44.2118C43.1021 44.5967 42.7394 44.8966 42.3152 45.0738C41.8909 45.2509 41.424 45.2973 40.9735 45.2069C40.5231 45.1166 40.1094 44.8937 39.7846 44.5664C39.4599 44.2391 39.2387 43.8221 39.1491 43.3682C39.0595 42.9142 39.1055 42.4436 39.2812 42.016C39.457 41.5883 39.7546 41.2228 40.1365 40.9657C40.5183 40.7085 40.9673 40.5713 41.4265 40.5713C41.7315 40.5713 42.0334 40.6318 42.3152 40.7494C42.5969 40.867 42.8529 41.0394 43.0685 41.2567C43.2841 41.474 43.4551 41.732 43.5718 42.016C43.6885 42.2999 43.7486 42.6042 43.7486 42.9116V42.9116Z" stroke="white" stroke-width="2" stroke-miterlimit="10" stroke-linecap="round"/>
<path d="M7.50924 4.28026C7.50924 4.9293 7.3182 5.56375 6.9603 6.10332C6.6024 6.64289 6.09373 7.06332 5.49866 7.31141C4.90359 7.5595 4.24888 7.62409 3.61737 7.49701C2.98587 7.36993 2.40596 7.05689 1.95104 6.5975C1.49613 6.13812 1.18665 5.55305 1.06178 4.91632C0.936904 4.2796 1.00225 3.61986 1.24955 3.02058C1.49684 2.42131 1.91496 1.90944 2.45101 1.54976C2.98705 1.19008 3.61691 0.998758 4.26088 1.00001C4.68799 1.00001 5.1109 1.0849 5.50542 1.24983C5.89994 1.41475 6.25831 1.65647 6.56003 1.96115C6.86175 2.26583 7.1009 2.62749 7.26378 3.02543C7.42665 3.42337 7.51007 3.84979 7.50924 4.28026V4.28026Z" stroke="white" stroke-width="2" stroke-miterlimit="10" stroke-linecap="round"/>
</svg>
