<svg width="28" height="20" viewBox="0 0 28 20" fill="none" xmlns="http://www.w3.org/2000/svg">
<path d="M25.5391 0H2.46094C1.10567 0 0 1.03569 0 2.30769V17.6923C0 18.96 1.10075 20 2.46094 20H25.5391C26.8909 20 28 18.9678 28 17.6923V2.30769C28 1.04 26.8993 0 25.5391 0ZM25.1992 1.53846L14.0522 11.9914L2.8087 1.53846H25.1992ZM1.64062 17.3737V2.61892L9.54182 9.96456L1.64062 17.3737ZM2.80071 18.4615L10.7069 11.0477L13.4772 13.6232C13.7979 13.9213 14.3154 13.9204 14.6348 13.6208L17.3359 11.0878L25.1993 18.4615H2.80071ZM26.3594 17.3737L18.496 10L26.3594 2.62626V17.3737Z" fill="white"/>
</svg>
