<svg width="12" height="15" viewBox="0 0 12 15" fill="none" xmlns="http://www.w3.org/2000/svg">
<path d="M6 0C6.27973 0 6.51028 0.222715 6.54178 0.509642L6.54545 0.576923V13.0292L11.0689 8.2459C11.2655 8.03793 11.5749 8.02193 11.7889 8.19791L11.8402 8.2459C12.0369 8.45387 12.052 8.78112 11.8856 9.00744L11.8402 9.06179L6.38569 14.831C6.36639 14.8514 6.346 14.87 6.32471 14.8867L6.26403 14.9281L6.20255 14.9589L6.14509 14.9793L6.06408 14.9961L6 15L5.95896 14.9984L5.89051 14.9883L5.82974 14.9713L5.76915 14.946L5.71598 14.9158L5.66569 14.879L5.61431 14.831L0.15976 9.06179C-0.0532533 8.83649 -0.0532533 8.4712 0.15976 8.2459C0.356388 8.03793 0.665786 8.02193 0.879763 8.19791L0.931149 8.2459L5.45455 13.0292V0.576923C5.45455 0.258297 5.69875 0 6 0Z" fill="white"/>
</svg>
