<svg width="30" height="30" viewBox="0 0 30 30" fill="none" xmlns="http://www.w3.org/2000/svg">
<path d="M19.4707 7.98154H10.5293C9.10216 7.98154 7.94104 9.14266 7.94104 10.5698V19.5112C7.94104 20.9384 9.10216 22.0998 10.5293 22.0998H19.4707C20.8979 22.0998 22.0593 20.9387 22.0593 19.5112V10.5698C22.0593 9.14266 20.8982 7.98154 19.4707 7.98154ZM15 19.6883C12.4375 19.6883 10.3525 17.6034 10.3525 15.0405C10.3525 12.478 12.4375 10.393 15 10.393C17.5629 10.393 19.6479 12.478 19.6479 15.0405C19.6479 17.6031 17.5626 19.6883 15 19.6883ZM19.7973 11.3539C19.1906 11.3539 18.6973 10.8606 18.6973 10.2543C18.6973 9.64802 19.1906 9.15469 19.7973 9.15469C20.4036 9.15469 20.8969 9.64802 20.8969 10.2543C20.8969 10.8606 20.4036 11.3539 19.7973 11.3539Z" fill="#E30613"/>
<path d="M15 12.3568C13.5207 12.3568 12.3161 13.5607 12.3161 15.04C12.3161 16.52 13.5207 17.7242 15 17.7242C16.48 17.7242 17.6835 16.52 17.6835 15.04C17.6835 13.561 16.4796 12.3568 15 12.3568Z" fill="#E30613"/>
<path d="M15 0C6.71606 0 0 6.71606 0 15C0 23.2839 6.71606 30 15 30C23.2839 30 30 23.2839 30 15C30 6.71606 23.2839 0 15 0ZM24.0229 19.5111C24.0229 22.0215 21.9811 24.0634 19.4707 24.0634H10.5293C8.01923 24.0634 5.97707 22.0215 5.97707 19.5111V10.5698C5.97707 8.05967 8.01923 6.01751 10.5293 6.01751H19.4707C21.9811 6.01751 24.0229 8.05967 24.0229 10.5698V19.5111Z" fill="#E30613"/>
</svg>
