<svg width="30" height="30" viewBox="0 0 30 30" fill="none" xmlns="http://www.w3.org/2000/svg">
<circle cx="15" cy="15" r="15" fill="#E30613"/>
<path d="M22.418 8H7.58203C6.71079 8 6 8.77677 6 9.73077V21.2692C6 22.22 6.70763 23 7.58203 23H22.418C23.287 23 24 22.2258 24 21.2692V9.73077C24 8.78 23.2924 8 22.418 8ZM22.1995 9.15385L15.0335 16.9936L7.80559 9.15385H22.1995ZM7.05469 21.0303V9.96419L12.134 15.4734L7.05469 21.0303ZM7.80046 21.8462L12.883 16.2858L14.6639 18.2174C14.8701 18.441 15.2027 18.4403 15.4081 18.2156L17.1445 16.3159L22.1995 21.8462H7.80046ZM22.9453 21.0303L17.8903 15.5L22.9453 9.96969V21.0303Z" fill="white"/>
</svg>
