<svg width="30" height="30" viewBox="0 0 30 30" fill="none" xmlns="http://www.w3.org/2000/svg">
<circle cx="15" cy="15" r="15" fill="#E30613"/>
<path d="M23 22.1818C23 22.6337 22.602 23 22.1111 23C21.6202 23 21.2222 22.6337 21.2222 22.1818C21.2222 19.0187 18.4364 16.4545 15 16.4545C11.5636 16.4545 8.77778 19.0187 8.77778 22.1818C8.77778 22.6337 8.37981 23 7.88889 23C7.39797 23 7 22.6337 7 22.1818C7 18.115 10.5817 14.8182 15 14.8182C19.4183 14.8182 23 18.115 23 22.1818ZM15 14C12.2999 14 10.1111 11.9853 10.1111 9.5C10.1111 7.01472 12.2999 5 15 5C17.7001 5 19.8889 7.01472 19.8889 9.5C19.8889 11.9853 17.7001 14 15 14ZM15 12.3636C16.7182 12.3636 18.1111 11.0815 18.1111 9.5C18.1111 7.91846 16.7182 6.63636 15 6.63636C13.2818 6.63636 11.8889 7.91846 11.8889 9.5C11.8889 11.0815 13.2818 12.3636 15 12.3636Z" fill="white"/>
</svg>
