<svg width="20" height="15" viewBox="0 0 20 15" fill="none" xmlns="http://www.w3.org/2000/svg">
<path d="M7.08475 0H5.83052C4.33899 0 3.11865 1.25 3.11865 2.77778V4.0625C3.11865 5.59028 4.33899 6.84028 5.83052 6.84028H7.08475C8.57628 6.84028 9.79662 5.59028 9.79662 4.0625V2.77778C9.79662 1.21528 8.57628 0 7.08475 0ZM8.44069 4.0625C8.44069 4.82639 7.83052 5.45139 7.08475 5.45139H5.83052C5.08475 5.45139 4.47458 4.82639 4.47458 4.0625V2.77778C4.47458 2.01389 5.08475 1.38889 5.83052 1.38889H7.08475C7.83052 1.38889 8.44069 2.01389 8.44069 2.77778V4.0625Z" fill="white"/>
<path d="M0.677966 4.09724H1.55932C1.9322 4.09724 2.23729 3.78474 2.23729 3.4028C2.23729 3.02085 1.9322 2.70835 1.55932 2.70835H0.677966C0.305085 2.70835 0 3.02085 0 3.4028C0 3.78474 0.305085 4.09724 0.677966 4.09724Z" fill="white"/>
<path d="M11.322 4.09724H19.322C19.6949 4.09724 20 3.78474 20 3.4028C20 3.02085 19.6949 2.70835 19.322 2.70835H11.322C10.9491 2.70835 10.644 3.02085 10.644 3.4028C10.644 3.78474 10.9491 4.09724 11.322 4.09724Z" fill="white"/>
<path d="M14.1695 8.15972H12.9152C11.4237 8.15972 10.2034 9.40972 10.2034 10.9375V12.2222C10.2034 13.75 11.4237 15 12.9152 15H14.1695C15.661 15 16.8813 13.75 16.8813 12.2222V10.9375C16.8813 9.40972 15.661 8.15972 14.1695 8.15972ZM15.5254 12.2222C15.5254 12.9861 14.9152 13.6111 14.1695 13.6111H12.9152C12.1695 13.6111 11.5593 12.9861 11.5593 12.2222V10.9375C11.5593 10.1736 12.1695 9.54861 12.9152 9.54861H14.1695C14.9152 9.54861 15.5254 10.1736 15.5254 10.9375V12.2222Z" fill="white"/>
<path d="M19.322 10.9028H18.4407C18.0678 10.9028 17.7627 11.2153 17.7627 11.5972C17.7627 11.9792 18.0678 12.2917 18.4407 12.2917H19.322C19.6949 12.2917 20 11.9792 20 11.5972C20 11.2153 19.6949 10.9028 19.322 10.9028Z" fill="white"/>
<path d="M8.67797 10.9028H0.677966C0.305085 10.9028 0 11.2153 0 11.5972C0 11.9792 0.305085 12.2917 0.677966 12.2917H8.67797C9.05085 12.2917 9.35593 11.9792 9.35593 11.5972C9.35593 11.2153 9.05085 10.9028 8.67797 10.9028Z" fill="white"/>
</svg>
