<svg width="30" height="30" viewBox="0 0 30 30" fill="none" xmlns="http://www.w3.org/2000/svg">
<circle cx="15" cy="15" r="15" fill="#BDBDBD"/>
<path fill-rule="evenodd" clip-rule="evenodd" d="M7.5 8C7.22386 8 7 8.22386 7 8.5C7 8.77614 7.22386 9 7.5 9H9.2457C9.46894 9 9.66513 9.14799 9.72646 9.36264L12.519 19.1365C12.5207 19.1427 12.5226 19.1489 12.5246 19.155C12.5617 19.269 12.6364 19.3611 12.7309 19.4214C12.7643 19.4427 12.8003 19.4602 12.8382 19.4732C12.8931 19.492 12.9515 19.5014 13.011 19.5H20.5C20.7265 19.5 20.9247 19.3477 20.9831 19.1288L22.9831 11.6288C23.0231 11.4787 22.9911 11.3186 22.8965 11.1954C22.8018 11.0722 22.6553 11 22.5 11H11.2343L10.688 9.08792C10.504 8.44397 9.91542 8 9.2457 8H7.5ZM13.3841 18.5L11.6508 12H21.8492L20.1158 18.5H13.3841ZM14.5 20C13.9477 20 13.5 20.4477 13.5 21C13.5 21.5523 13.9477 22 14.5 22C15.0523 22 15.5 21.5523 15.5 21C15.5 20.4477 15.0523 20 14.5 20ZM18 21C18 20.4477 18.4477 20 19 20C19.5523 20 20 20.4477 20 21C20 21.5523 19.5523 22 19 22C18.4477 22 18 21.5523 18 21Z" fill="#FAFAFA"/>
</svg>
