<svg width="20" height="25" viewBox="0 0 20 25" fill="none" xmlns="http://www.w3.org/2000/svg">
<path d="M1.85484 21.7399C1.89021 22.6176 2.24563 23.4469 2.84679 24.0544C3.44796 24.662 4.24834 25.0008 5.08065 25H14.9194C15.7517 25.0008 16.552 24.662 17.1532 24.0544C17.7544 23.4469 18.1098 22.6176 18.1452 21.7399L18.7782 6.34576H1.22177L1.85484 21.7399ZM12.3831 9.63568C12.39 9.40993 12.4816 9.19633 12.6378 9.04189C12.794 8.88744 13.0018 8.8048 13.2157 8.81214C13.4296 8.81947 13.632 8.91619 13.7783 9.08101C13.9246 9.24583 14.0029 9.46525 13.996 9.69101L13.629 20.8589C13.6217 21.0794 13.5335 21.2883 13.3831 21.4416C13.2326 21.5948 13.0317 21.6804 12.8226 21.6803C12.7143 21.6804 12.607 21.6574 12.5073 21.6128C12.4076 21.5681 12.3174 21.5028 12.2421 21.4205C12.1669 21.3383 12.108 21.2409 12.0692 21.1342C12.0304 21.0274 12.0123 20.9135 12.0161 20.7993L12.3831 9.63568ZM6.77419 8.81852C6.88044 8.81454 6.98639 8.83278 7.08594 8.87218C7.18548 8.91159 7.27666 8.97138 7.35424 9.04811C7.43181 9.12485 7.49424 9.21702 7.53794 9.31932C7.58164 9.42162 7.60575 9.53203 7.60887 9.64419L7.98387 20.7993C7.98766 20.9135 7.96961 21.0274 7.93078 21.1342C7.89195 21.2409 7.83315 21.3383 7.75788 21.4205C7.68262 21.5028 7.59243 21.5681 7.4927 21.6128C7.39297 21.6574 7.28574 21.6804 7.17742 21.6803C6.96834 21.6804 6.76738 21.5948 6.61692 21.4416C6.46647 21.2883 6.37829 21.0794 6.37097 20.8589L6.01613 9.69101C6.01052 9.47018 6.08647 9.2557 6.22793 9.09289C6.36939 8.93008 6.56527 8.8317 6.77419 8.81852ZM19.1935 2.94093H13.8185V0.851209C13.8185 0.625454 13.7336 0.408946 13.5823 0.249313C13.4311 0.0896807 13.226 0 13.0121 0H6.9879C6.77402 0 6.56889 0.0896807 6.41766 0.249313C6.26642 0.408946 6.18145 0.625454 6.18145 0.851209V2.94093H0.806452C0.592567 2.94093 0.387443 3.03061 0.236204 3.19024C0.0849654 3.34987 0 3.56638 0 3.79213C0 4.01789 0.0849654 4.2344 0.236204 4.39403C0.387443 4.55366 0.592567 4.64334 0.806452 4.64334H19.1935C19.4074 4.64334 19.6126 4.55366 19.7638 4.39403C19.915 4.2344 20 4.01789 20 3.79213C20 3.56638 19.915 3.34987 19.7638 3.19024C19.6126 3.03061 19.4074 2.94093 19.1935 2.94093ZM7.79436 1.70242H12.2056V2.94093H7.79436V1.70242Z" fill="#E30613"/>
</svg>
