<svg width="256" height="270" viewBox="0 0 256 270" fill="none" xmlns="http://www.w3.org/2000/svg">
<path d="M263.653 13.458L0 279.187L22.88 302.247L286.533 36.5181L263.653 13.458Z" fill="url(#paint0_linear)"/>
<path d="M21.7109 297.616L10.0131 310L4.71094 280.384L16.4087 268L21.7109 297.616Z" fill="#3D2600"/>
<path d="M44.7109 274.911L32.325 287L26.7109 258.089L39.0968 246L44.7109 274.911Z" fill="#3D2600"/>
<path d="M66.7109 252.89L54.325 265L48.7109 236.089L61.0968 224L66.7109 252.89Z" fill="#3D2600"/>
<path d="M88.7109 229.911L76.325 242L70.7109 213.089L83.0969 201L88.7109 229.911Z" fill="#3D2600"/>
<path d="M110.711 207.89L99.0131 220L93.7109 191.089L105.409 179L110.711 207.89Z" fill="#3D2600"/>
<path d="M132.711 185.616L121.013 198L115.711 168.384L127.409 156L132.711 185.616Z" fill="#3D2600"/>
<path d="M155.711 162.89L143.325 175L137.711 146.089L150.097 134L155.711 162.89Z" fill="#3D2600"/>
<path d="M177.711 140.911L165.325 153L159.711 124.089L172.097 112L177.711 140.911Z" fill="#3D2600"/>
<path d="M199.711 118.594L187.325 131L181.711 101.384L194.097 89L199.711 118.594Z" fill="#3D2600"/>
<path d="M221.711 95.9111L210.013 108L204.711 79.0889L216.409 67L221.711 95.9111Z" fill="#3D2600"/>
<path d="M243.711 73.9111L232.013 86L226.711 57.0889L238.409 45L243.711 73.9111Z" fill="#3D2600"/>
<path d="M266.711 50.9048L254.325 63L248.711 34.0739L261.097 22L266.711 50.9048Z" fill="#3D2600"/>
<path d="M336.777 85.5074L18.9961 282.085L35.9219 309.879L353.703 113.302L336.777 85.5074Z" fill="url(#paint1_linear)"/>
<path d="M63.3029 288.14L48.7109 297L50.1189 267.86L64.7109 259L63.3029 288.14Z" fill="#3D2600"/>
<path d="M89.3224 271.907L74.7109 281L76.1208 251.093L90.7109 242L89.3224 271.907Z" fill="#3D2600"/>
<path d="M116.301 255.123L101.711 264L103.121 234.855L117.711 226L116.301 255.123Z" fill="#3D2600"/>
<path d="M143.301 238.89L128.711 248L130.099 218.11L144.711 209L143.301 238.89Z" fill="#3D2600"/>
<path d="M170.301 222.123L155.711 231L157.099 201.877L171.711 193L170.301 222.123Z" fill="#3D2600"/>
<path d="M196.391 205.912L182.711 215L184.031 185.11L197.711 176L196.391 205.912Z" fill="#3D2600"/>
<path d="M223.322 189.14L208.711 198L210.121 168.86L224.711 160L223.322 189.14Z" fill="#3D2600"/>
<path d="M250.301 172.907L235.711 182L237.121 152.093L251.711 143L250.301 172.907Z" fill="#3D2600"/>
<defs>
<linearGradient id="paint0_linear" x1="11.5227" y1="290.801" x2="277.244" y2="27.1556" gradientUnits="userSpaceOnUse">
<stop stop-color="#FFBC00"/>
<stop offset="1" stop-color="#FFFF00"/>
</linearGradient>
<linearGradient id="paint1_linear" x1="91458.3" y1="77574.7" x2="147397" y2="43509.7" gradientUnits="userSpaceOnUse">
<stop stop-color="#FFBC00"/>
<stop offset="1" stop-color="#FFFF00"/>
</linearGradient>
</defs>
</svg>
