<svg width="44" height="108" viewBox="0 0 44 108" fill="none" xmlns="http://www.w3.org/2000/svg">
<path d="M4.78032 69.2796L3.50977 72.4337" stroke="white" stroke-width="2" stroke-miterlimit="10" stroke-linecap="round"/>
<path d="M6.95682 63.8987L5.73633 66.914" stroke="white" stroke-width="2" stroke-miterlimit="10" stroke-linecap="round"/>
<path d="M4.12944 67.7153L1 66.4284" stroke="white" stroke-width="2" stroke-miterlimit="10" stroke-linecap="round"/>
<path d="M9.4605 69.9042L6.46875 68.6741" stroke="white" stroke-width="2" stroke-miterlimit="10" stroke-linecap="round"/>
<path d="M28.0615 45.8007L29.0254 47.5607" stroke="white" stroke-width="1.18" stroke-miterlimit="10" stroke-linecap="round"/>
<path d="M26.417 42.8106L27.337 44.4886" stroke="white" stroke-width="1.18" stroke-miterlimit="10" stroke-linecap="round"/>
<path d="M27.1042 45.5294L25.3643 46.5008" stroke="white" stroke-width="1.18" stroke-miterlimit="10" stroke-linecap="round"/>
<path d="M30.078 43.8639L28.4131 44.7975" stroke="white" stroke-width="1.18" stroke-miterlimit="10" stroke-linecap="round"/>
<path d="M35.3784 26.2326C35.3796 26.4702 35.3108 26.7027 35.1806 26.9008C35.0504 27.0989 34.8647 27.2535 34.6472 27.345C34.4296 27.4365 34.19 27.4607 33.9587 27.4147C33.7275 27.3686 33.515 27.2544 33.3483 27.0864C33.1816 26.9184 33.0682 26.7042 33.0225 26.4711C32.9769 26.2381 33.0009 25.9966 33.0917 25.7773C33.1825 25.558 33.3359 25.3709 33.5324 25.2397C33.7289 25.1085 33.9597 25.0391 34.1954 25.0403C34.5087 25.042 34.8086 25.1681 35.0301 25.3914C35.2516 25.6146 35.3767 25.9169 35.3784 26.2326V26.2326Z" stroke="white" stroke-width="2" stroke-miterlimit="10" stroke-linecap="round"/>
<path d="M32.2696 4.90476C32.2647 5.67096 32.0347 6.41853 31.6088 7.05318C31.1828 7.68784 30.58 8.18116 29.8762 8.47093C29.1724 8.7607 28.3993 8.83393 27.6543 8.6814C26.9092 8.52887 26.2257 8.15741 25.6899 7.61386C25.1541 7.0703 24.7899 6.379 24.6434 5.62715C24.4969 4.87529 24.5746 4.09655 24.8667 3.38913C25.1587 2.68171 25.6521 2.07729 26.2845 1.65211C26.917 1.22693 27.6602 1.00002 28.4204 1C28.928 0.999989 29.4306 1.10117 29.8993 1.29771C30.3679 1.49425 30.7934 1.78227 31.1511 2.14519C31.5089 2.50812 31.7919 2.93878 31.9838 3.41238C32.1758 3.88598 32.2729 4.39317 32.2696 4.90476V4.90476Z" stroke="white" stroke-width="2" stroke-miterlimit="10" stroke-linecap="round"/>
<path d="M42.8576 83.9967C42.8576 84.6816 42.6561 85.3512 42.2785 85.9207C41.901 86.4902 41.3643 86.9341 40.7364 87.1962C40.1086 87.4584 39.4177 87.5269 38.7511 87.3933C38.0846 87.2597 37.4723 86.9298 36.9918 86.4455C36.5112 85.9612 36.184 85.3441 36.0514 84.6723C35.9188 84.0005 35.9868 83.3042 36.2469 82.6714C36.507 82.0385 36.9474 81.4977 37.5125 81.1171C38.0775 80.7366 38.7419 80.5335 39.4215 80.5335C40.3328 80.5335 41.2068 80.8983 41.8512 81.5478C42.4956 82.1973 42.8576 83.0782 42.8576 83.9967Z" stroke="white" stroke-width="2" stroke-miterlimit="10" stroke-linecap="round"/>
<path d="M31.5176 105.129C31.5176 105.404 31.4367 105.672 31.2851 105.9C31.1335 106.129 30.9181 106.307 30.6661 106.412C30.4141 106.516 30.137 106.543 29.8697 106.489C29.6024 106.435 29.3571 106.303 29.1648 106.108C28.9724 105.913 28.8418 105.665 28.7894 105.396C28.7369 105.126 28.7651 104.847 28.8703 104.593C28.9755 104.34 29.1529 104.124 29.3802 103.972C29.6075 103.82 29.8743 103.74 30.1469 103.741C30.3274 103.741 30.5062 103.777 30.6729 103.847C30.8396 103.917 30.991 104.019 31.1183 104.148C31.2457 104.277 31.3465 104.43 31.4151 104.598C31.4836 104.767 31.5184 104.947 31.5176 105.129Z" stroke="white" stroke-width="2" stroke-miterlimit="10" stroke-linecap="round"/>
</svg>
