<svg width="15" height="30" viewBox="0 0 15 30" fill="none" xmlns="http://www.w3.org/2000/svg">
<path d="M14.9945 14.8745C14.9671 14.5666 14.8402 14.2751 14.632 14.042L2.65855 0.539316C2.5319 0.387285 2.37518 0.261646 2.19772 0.169924C2.02025 0.0782013 1.82568 0.0222549 1.62558 0.00540733C1.42548 -0.0114422 1.22395 0.0111713 1.03299 0.0718727C0.842037 0.132574 0.66556 0.23015 0.51407 0.358763C0.362579 0.487375 0.239176 0.644405 0.151209 0.820505C0.063242 0.996603 0.0125113 1.18815 0.00203705 1.38377C-0.00843716 1.57939 0.0215626 1.77508 0.0902443 1.95916C0.158926 2.14323 0.264886 2.31194 0.401817 2.45524L11.5217 15L0.401817 27.5448C0.264886 27.6881 0.158926 27.8568 0.0902443 28.0409C0.0215626 28.2249 -0.00843716 28.4206 0.00203705 28.6162C0.0125113 28.8119 0.063242 29.0034 0.151209 29.1795C0.239176 29.3556 0.362579 29.5126 0.51407 29.6413C0.66556 29.7699 0.842037 29.8674 1.03299 29.9281C1.22395 29.9888 1.42548 30.0114 1.62558 29.9946C1.82568 29.9777 2.02025 29.9218 2.19772 29.8301C2.37518 29.7383 2.5319 29.6127 2.65855 29.4607L14.632 15.958C14.7639 15.8103 14.8639 15.6383 14.9261 15.4522C14.9884 15.266 15.0117 15.0696 14.9945 14.8745Z" fill="#F44336"/>
</svg>
