<svg width="10" height="5" viewBox="0 0 10 5" fill="none" xmlns="http://www.w3.org/2000/svg">
<path d="M4.95818 0.00182465C4.85554 0.0109674 4.75837 0.0532758 4.68068 0.122657L0.179772 4.11382C0.129095 4.15603 0.0872154 4.20827 0.0566416 4.26743C0.0260668 4.32658 0.00741863 4.39144 0.00180244 4.45814C-0.00381374 4.52484 0.0037241 4.59202 0.0239573 4.65567C0.0441914 4.71932 0.0767174 4.77815 0.119588 4.82864C0.162458 4.87914 0.214802 4.92027 0.273501 4.9496C0.332201 4.97892 0.39605 4.99583 0.461257 4.99932C0.526464 5.00281 0.591693 4.99281 0.653052 4.96992C0.714411 4.94702 0.770647 4.9117 0.818415 4.86606L5 1.15942L9.18159 4.86606C9.22936 4.9117 9.28559 4.94702 9.34695 4.96992C9.40831 4.99281 9.47354 5.00281 9.53875 4.99932C9.60396 4.99583 9.6678 4.97892 9.7265 4.9496C9.7852 4.92027 9.83755 4.87914 9.88042 4.82864C9.92329 4.77815 9.95581 4.71932 9.97605 4.65567C9.99628 4.59202 10.0038 4.52484 9.9982 4.45814C9.99258 4.39144 9.97393 4.32658 9.94336 4.26743C9.91278 4.20827 9.87091 4.15603 9.82023 4.11382L5.31932 0.122657C5.27011 0.0787162 5.21277 0.045375 5.15072 0.0246168C5.08868 0.00385854 5.0232 -0.00389263 4.95818 0.00182465Z" fill="#F44336"/>
</svg>
