<svg width="385" height="376" viewBox="0 0 385 376" fill="none" xmlns="http://www.w3.org/2000/svg">
<path d="M338.857 322.594C329.053 332.692 320.282 338.629 313.566 343.11C248.065 386.814 173.191 374.217 150.042 369.911C112.692 362.965 81.1648 358.064 54.0768 333.61C-7.47433 278.042 -4.47427 162.121 42.5533 90.317C48.1291 81.8025 95.0908 12.2419 170.13 2.44038C171.966 2.20152 173.334 2.06464 174.534 1.93716C186.139 0.709285 258.072 -5.77629 316.732 43.3278C325.128 50.3569 338.639 63.0355 351.169 82.3781C396.977 153.077 397.122 262.581 338.857 322.594Z" fill="#E30613"/>
<path d="M98.3478 18.5008C94.0278 18.8801 90.0061 20.8608 87.0737 24.0533C84.1412 27.2459 82.5102 31.4192 82.5014 35.7527C82.3456 90.6755 82.0891 280.119 85.6706 347.17C85.8521 350.592 87.331 353.815 89.8064 356.186C92.2819 358.556 95.568 359.895 98.9964 359.931C134.205 360.311 235.481 361.004 292.975 357.331C298.742 356.968 304.154 354.421 308.108 350.209C312.061 345.998 314.259 340.438 314.254 334.663C314.184 277.021 313.263 114.908 305.361 40.8078C304.903 36.5058 302.953 32.4997 299.848 29.4847C296.743 26.4697 292.68 24.6361 288.364 24.302C249.966 21.3162 147.994 14.1865 98.3478 18.5008Z" fill="url(#paint0_linear)"/>
<path d="M96.6346 50.1462C95.943 97.1274 93.9756 253.416 97.4121 311.099C97.9144 319.53 104.468 326.186 112.56 326.468C145.879 327.629 231.322 329.874 280.01 324.521C288.776 323.556 295.476 315.964 295.71 306.769C296.928 258.824 300.218 113.261 296.877 56.2292C296.34 47.1296 289.387 39.8697 280.668 39.2819C244.59 36.853 151.948 31.2504 110.547 34.6965C102.774 35.3313 96.7595 42.0128 96.6346 50.1462Z" fill="#D3D3D3"/>
<path d="M177.14 26.6689C177.152 27.2934 177.404 27.8893 177.844 28.3333C178.284 28.7774 178.877 29.0357 179.502 29.0549C185.913 29.2494 203.974 29.8023 212.046 30.0922C212.418 30.1057 212.787 30.0343 213.127 29.8832C213.466 29.7322 213.767 29.5056 214.006 29.2208C214.244 28.9359 214.414 28.6004 214.503 28.2397C214.592 27.8791 214.597 27.5029 214.519 27.1399C214.492 27.0916 214.285 25.0961 212.246 24.9552C206.785 24.5755 190.311 23.5529 179.424 24.1796C177.188 24.3071 177.066 26.8487 177.14 26.6689Z" fill="url(#paint1_linear)"/>
<path d="M135.745 192.026C135.745 192.026 181.672 180.514 230.193 187.464C243.845 189.418 255.937 197.354 263.306 209.005C276.58 229.997 295.348 267.404 291.372 306.419L270.537 311.568C270.537 311.568 256.137 265.271 239.931 246.425C239.931 246.425 220.738 290.143 221.707 314.149C221.736 314.828 221.781 315.491 221.842 316.137C224.044 339.621 129.707 320.52 129.707 320.52L135.745 192.026Z" fill="url(#paint2_linear)"/>
<path d="M185.396 152.835L175.618 183.956C174.709 186.851 175.618 189.952 177.885 191.7C183.122 195.726 193.463 202.139 206.101 201.956C208.413 201.922 210.358 199.943 210.519 197.527L214 145.514L185.396 152.835Z" fill="url(#paint3_linear)"/>
<path d="M223.253 118.727C223.253 118.727 227.051 143.236 224.659 154.949C222.267 166.661 222.787 174.81 208.813 173.623C194.838 172.437 185.34 162.837 182.267 149.737C182.267 149.737 177.375 129.511 181.425 122.818C185.476 116.124 223.253 118.727 223.253 118.727Z" fill="url(#paint4_linear)"/>
<path d="M189.013 142.669L190.701 143.112C190.701 143.112 187.494 127.026 194.265 126.125C201.036 125.225 226.55 126.647 234.031 119.433C241.246 112.479 239.564 100.607 233.629 95.8512C233.442 95.7098 233.21 95.6437 232.977 95.6661C232.744 95.6885 232.529 95.7977 232.373 95.972L231.54 96.8792C231.413 97.0159 231.249 97.1119 231.067 97.1547C230.885 97.1975 230.695 97.1854 230.52 97.1197C230.345 97.0541 230.194 96.938 230.086 96.7861C229.977 96.6343 229.917 96.4537 229.911 96.2672C229.891 95.4621 228.932 95.0434 228.351 95.5963C226.076 97.7434 220.648 100.782 208.469 99.8744C191.19 98.5874 178.542 102.392 175.282 113.696C175.236 113.858 175.148 114.004 175.026 114.119C174.905 114.235 174.755 114.316 174.591 114.354C174.428 114.393 174.258 114.386 174.097 114.337C173.937 114.287 173.793 114.195 173.681 114.071C172.659 113.011 170.804 112.152 167.627 113.655C162.102 116.269 161.36 126.618 169.147 137.337C169.234 137.454 169.293 137.59 169.319 137.733C169.344 137.877 169.336 138.024 169.295 138.164C169.253 138.304 169.18 138.432 169.081 138.539C168.981 138.646 168.858 138.728 168.721 138.778C166.616 139.476 163.203 141.556 169.174 147.09C175.283 152.752 179.596 153.442 181.29 153.453C181.51 153.457 181.726 153.383 181.897 153.245C182.069 153.106 182.187 152.912 182.23 152.696L184.259 142.446C184.284 142.321 184.335 142.202 184.407 142.096C184.48 141.991 184.574 141.902 184.682 141.834C184.791 141.766 184.912 141.721 185.038 141.702C185.165 141.682 185.294 141.689 185.418 141.721L189.013 142.669Z" fill="url(#paint5_linear)"/>
<path d="M188.872 144.888C188.872 144.888 188.911 129.88 181.572 132.164C174.233 134.448 180.703 148.764 185.633 150.62L188.872 144.888Z" fill="url(#paint6_linear)"/>
<path d="M137.662 290.609C135.627 276.25 148.872 250.164 155.025 242.157C156.792 239.869 157.764 237.069 157.795 234.179C157.976 213.85 149.432 200.793 135.745 192.026C135.745 192.026 86.0694 249.864 98.7184 294.341C99.9747 298.844 102.065 303.071 104.88 306.805C106.874 290.049 127.892 291.382 137.662 290.609Z" fill="url(#paint7_linear)"/>
<path d="M136.955 280.067L135.062 279.852C136.667 265.775 149.029 248.396 154.266 241.578L155.777 242.738C150.636 249.431 138.506 266.464 136.955 280.067Z" fill="url(#paint8_linear)"/>
<path d="M137.913 289.936C132.325 289.945 106.623 290.824 104.25 306.147C126.418 335.446 187.521 324.876 187.521 324.876V313.476C187.521 313.476 149.219 306.525 139.481 290.809C139.316 290.542 139.086 290.321 138.811 290.168C138.536 290.015 138.227 289.935 137.913 289.936Z" fill="url(#paint9_linear)"/>
<path d="M182.277 322.391C182.277 322.391 191.299 301.118 207.196 308.664C223.094 316.209 221.844 321.143 221.844 321.143L182.277 322.391Z" fill="url(#paint10_linear)"/>
<path d="M180.252 326.8C180.313 327.574 180.67 328.295 181.25 328.813C181.83 329.33 182.588 329.604 183.365 329.577L265.743 326.706C266.368 326.684 266.971 326.469 267.468 326.09C267.965 325.711 268.333 325.187 268.519 324.591L270.909 316.942C271.047 316.503 271.082 316.039 271.012 315.585C270.943 315.131 270.77 314.699 270.508 314.321C270.245 313.944 269.9 313.632 269.498 313.408C269.097 313.184 268.649 313.056 268.19 313.031L238.149 311.436C237.878 311.423 237.608 311.445 237.343 311.503L182.614 323.615C181.901 323.771 181.27 324.179 180.835 324.765C180.401 325.35 180.194 326.073 180.252 326.8Z" fill="url(#paint11_linear)"/>
<path d="M235.473 323.8L237.739 313.246L268.597 314.718L266.566 323.474L235.473 323.8Z" fill="url(#paint12_linear)"/>
<path d="M219.651 210.195C217.905 224.454 210.049 282.391 207.8 298.944C207.726 299.491 207.772 300.047 207.935 300.574C208.098 301.102 208.374 301.587 208.744 301.997C209.113 302.407 209.568 302.732 210.076 302.949C210.584 303.166 211.133 303.269 211.685 303.253L344.958 299.442C345.806 299.417 346.621 299.111 347.275 298.572C347.929 298.032 348.383 297.29 348.567 296.462L369.299 203.164C369.427 202.59 369.419 201.994 369.277 201.422C369.135 200.851 368.863 200.32 368.481 199.872C368.099 199.424 367.618 199.071 367.076 198.839C366.535 198.608 365.947 198.506 365.359 198.54L223.208 206.86C222.319 206.912 221.475 207.274 220.825 207.883C220.175 208.493 219.759 209.311 219.651 210.195Z" fill="url(#paint13_linear)"/>
<path d="M273.22 268.702L253.523 324.568L299.324 325.538L303.138 269.043C303.179 268.418 303.087 267.792 302.867 267.206C302.647 266.619 302.304 266.087 301.861 265.644C301.419 265.201 300.886 264.858 300.3 264.638C299.713 264.417 299.087 264.325 298.461 264.366L277.073 265.786C276.216 265.842 275.394 266.149 274.709 266.667C274.024 267.185 273.507 267.893 273.22 268.702Z" fill="url(#paint14_linear)"/>
<path d="M234.959 325.364C234.841 325.721 234.81 326.101 234.868 326.472C234.926 326.843 235.071 327.196 235.292 327.5C235.512 327.804 235.802 328.052 236.137 328.223C236.472 328.394 236.843 328.483 237.219 328.483H308.943C309.255 328.483 309.564 328.421 309.853 328.302C310.142 328.182 310.404 328.007 310.625 327.786C310.846 327.565 311.021 327.303 311.14 327.015C311.26 326.726 311.321 326.417 311.321 326.105V323.032C311.321 322.711 311.256 322.394 311.13 322.099C311.004 321.804 310.82 321.537 310.588 321.315C310.356 321.093 310.082 320.921 309.782 320.807C309.481 320.694 309.161 320.643 308.841 320.656L237.114 323.731C236.631 323.752 236.166 323.919 235.781 324.211C235.396 324.503 235.109 324.905 234.959 325.364Z" fill="url(#paint15_linear)"/>
<path d="M217.639 269.134L216.699 269.015L223.247 217.412C223.445 215.859 224.178 214.424 225.322 213.355C226.465 212.285 227.946 211.648 229.509 211.553L352.343 204.147L352.401 205.097L229.562 212.51C228.221 212.593 226.951 213.14 225.97 214.058C224.99 214.976 224.36 216.206 224.19 217.538L217.639 269.134Z" fill="#91B3FA"/>
<path d="M214.823 283.713L213.414 294.886L214.36 295.005L215.769 283.832L214.823 283.713Z" fill="#91B3FA"/>
<path d="M210.171 160.71C195.371 161.827 186.768 146.535 186.684 146.38L187.675 145.834C187.757 145.982 196.018 160.644 210.087 159.582L210.171 160.71Z" fill="url(#paint16_linear)"/>
<path d="M216.204 160.138C216.204 160.559 216.037 160.963 215.739 161.261C215.441 161.558 215.037 161.726 214.616 161.726H210.382C210.173 161.726 209.966 161.685 209.773 161.605C209.581 161.525 209.405 161.409 209.258 161.261C209.11 161.114 208.993 160.939 208.914 160.746C208.834 160.553 208.793 160.347 208.793 160.138C208.793 159.93 208.834 159.723 208.914 159.531C208.994 159.338 209.111 159.163 209.258 159.016C209.406 158.869 209.581 158.752 209.774 158.672C209.967 158.593 210.173 158.552 210.382 158.552H214.616C215.037 158.552 215.441 158.719 215.739 159.017C216.037 159.314 216.204 159.717 216.204 160.138Z" fill="url(#paint17_linear)"/>
<path d="M187.703 129.416C187.703 129.416 193.016 102.189 208.666 99.6246C208.666 99.6246 204.235 97.3957 199.614 99.8138C194.993 102.232 183.315 115.484 183.792 130.091C186.968 131.23 187.703 129.416 187.703 129.416Z" fill="url(#paint18_linear)"/>
<path d="M184.99 128.127C176.853 129.776 177.854 140.058 177.854 140.058C177.268 147.52 179.446 151.218 182.24 152.981C183.178 153.572 184.254 153.91 185.363 153.963C186.471 154.015 187.574 153.78 188.564 153.28C189.555 152.78 190.399 152.033 191.015 151.11C191.63 150.188 191.997 149.122 192.078 148.016C192.228 145.986 192.4 144.055 192.552 143.369C192.913 141.713 193.12 126.477 184.99 128.127Z" fill="url(#paint19_linear)"/>
<path d="M185.73 130.727C184.912 130.585 184.069 130.722 183.338 131.117C182.607 131.512 182.031 132.141 181.701 132.903C176.84 144.16 182.809 151.482 185.741 151.634C188.83 151.795 188.768 136.944 188.111 133.137C187.83 131.548 186.817 130.916 185.73 130.727Z" fill="url(#paint20_linear)"/>
<path d="M303.15 178.116C330.847 178.116 353.3 155.68 353.3 128.003C353.3 100.326 330.847 77.8896 303.15 77.8896C275.453 77.8896 253 100.326 253 128.003C253 155.68 275.453 178.116 303.15 178.116Z" fill="white"/>
<path d="M301.288 159.501C298.926 159.656 296.722 158.561 295.506 156.595L274.967 123.647C273.043 120.56 274.08 116.331 277.282 114.201C280.485 112.071 284.635 112.851 286.557 115.937L300.791 138.809L319.582 100.564C321.268 97.1328 325.32 95.5587 328.629 97.0469C331.938 98.5351 333.254 102.521 331.57 105.951L307.287 155.409C306.175 157.673 303.965 159.231 301.513 159.478C301.439 159.49 301.36 159.497 301.288 159.501Z" fill="#30CE42"/>
<path d="M139.611 361.663V302.226C139.614 298.475 138.135 294.874 135.496 292.206C132.857 289.538 129.271 288.019 125.517 287.978C102.063 287.723 53.6928 287.709 14.1144 291.043C11.5039 291.263 9.06491 292.432 7.25852 294.328C5.45213 296.225 4.40357 298.716 4.31111 301.333L0.618096 358.797C0.553421 360.602 0.848971 362.401 1.48751 364.091C2.12605 365.78 3.09481 367.326 4.33729 368.638C5.57977 369.949 7.07112 371 8.72437 371.73C10.3776 372.46 12.1597 372.853 13.9667 372.887L125.99 375.014C127.766 375.048 129.531 374.728 131.182 374.072C132.833 373.416 134.336 372.438 135.604 371.195C136.872 369.952 137.88 368.469 138.568 366.832C139.256 365.196 139.611 363.438 139.611 361.663Z" fill="#EF9F37"/>
<path d="M126.028 308.657C126.127 313.714 125.978 321.739 125.855 326.923C125.839 327.56 125.691 328.187 125.42 328.764C125.149 329.34 124.76 329.854 124.278 330.272C123.797 330.689 123.233 331.002 122.624 331.19C122.015 331.378 121.373 331.436 120.739 331.362L101.438 329.101C100.827 329.03 100.237 328.836 99.7023 328.532C99.1679 328.228 98.7002 327.82 98.327 327.332C97.9539 326.844 97.6829 326.285 97.5302 325.69C97.3775 325.095 97.3463 324.475 97.4384 323.867L99.8073 308.074C99.9701 306.989 100.517 305.999 101.349 305.283C102.181 304.567 103.242 304.173 104.34 304.173H121.446C122.645 304.171 123.797 304.64 124.654 305.478C125.511 306.317 126.005 307.458 126.028 308.657Z" fill="white"/>
<path opacity="0.37" d="M75.589 338.587L59.4874 340.322C58.9585 340.38 58.4234 340.32 57.92 340.148C57.4166 339.976 56.9574 339.695 56.5748 339.326C56.1922 338.956 55.8957 338.507 55.7063 338.01C55.5169 337.513 55.4392 336.981 55.4788 336.451L58.9986 288.591C65.7481 288.377 72.4049 288.22 78.8294 288.112V334.985C78.8292 335.879 78.4981 336.742 77.8999 337.407C77.3017 338.072 76.4787 338.492 75.589 338.587Z" fill="white"/>
<path d="M68.9867 330.289C68.9631 330.7 68.7832 331.087 68.4837 331.37C68.1842 331.654 67.7877 331.812 67.3752 331.813C67.343 331.813 67.3121 331.813 67.2799 331.813C67.0673 331.802 66.8591 331.749 66.6672 331.656C66.4754 331.564 66.3037 331.435 66.1621 331.276C66.0205 331.117 65.9118 330.932 65.8423 330.731C65.7728 330.53 65.7438 330.317 65.757 330.105L68.185 288.334C69.2741 288.308 70.3538 288.282 71.4335 288.259L68.9867 330.289Z" fill="white"/>
<path d="M117.101 323.733C117.238 323.733 117.37 323.681 117.47 323.587C117.57 323.493 117.63 323.364 117.638 323.227L118.472 310.076C118.477 310.005 118.468 309.934 118.445 309.867C118.422 309.8 118.386 309.738 118.339 309.685C118.292 309.631 118.235 309.588 118.171 309.557C118.108 309.526 118.038 309.507 117.967 309.503C117.896 309.497 117.824 309.506 117.757 309.528C117.689 309.551 117.626 309.587 117.573 309.634C117.519 309.681 117.476 309.739 117.445 309.803C117.415 309.868 117.398 309.938 117.395 310.009L116.56 323.16C116.555 323.231 116.564 323.302 116.587 323.369C116.61 323.436 116.646 323.498 116.693 323.551C116.74 323.604 116.797 323.648 116.861 323.679C116.925 323.71 116.994 323.728 117.065 323.732L117.101 323.733Z" fill="url(#paint21_linear)"/>
<path d="M115.385 323.733C115.525 323.733 115.66 323.679 115.76 323.581C115.86 323.484 115.919 323.351 115.923 323.211L116.359 309.803C116.362 309.732 116.35 309.661 116.326 309.595C116.301 309.528 116.263 309.468 116.215 309.416C116.166 309.364 116.108 309.322 116.043 309.293C115.979 309.264 115.909 309.248 115.838 309.246C115.766 309.239 115.693 309.248 115.625 309.271C115.557 309.295 115.494 309.332 115.441 309.381C115.389 309.431 115.347 309.491 115.319 309.557C115.291 309.624 115.277 309.696 115.279 309.768L114.844 323.176C114.841 323.247 114.853 323.318 114.877 323.385C114.902 323.452 114.94 323.513 114.989 323.565C115.037 323.617 115.096 323.658 115.161 323.688C115.225 323.717 115.295 323.733 115.367 323.735L115.385 323.733Z" fill="url(#paint22_linear)"/>
<path d="M113.053 323.732C112.982 323.729 112.912 323.712 112.848 323.682C112.784 323.652 112.727 323.609 112.679 323.557C112.631 323.505 112.594 323.443 112.57 323.377C112.547 323.31 112.536 323.239 112.54 323.168C112.753 318.664 113.162 310.072 113.168 309.78C113.168 309.638 113.225 309.501 113.326 309.4C113.426 309.3 113.563 309.243 113.705 309.243C113.848 309.243 113.985 309.3 114.085 309.4C114.186 309.501 114.243 309.638 114.243 309.78C114.243 310.003 113.718 321.009 113.611 323.214C113.606 323.352 113.546 323.483 113.446 323.579C113.346 323.675 113.213 323.728 113.074 323.728L113.053 323.732Z" fill="url(#paint23_linear)"/>
<path d="M109.479 324.273C109.759 324.273 110.027 324.164 110.228 323.97C110.428 323.775 110.545 323.511 110.554 323.231C111.01 310.24 110.93 309.946 110.877 309.753C110.821 309.473 110.655 309.227 110.417 309.069C110.179 308.911 109.888 308.854 109.607 308.911C109.327 308.968 109.081 309.133 108.923 309.371C108.765 309.609 108.708 309.9 108.765 310.18C108.8 310.961 108.558 318.52 108.395 323.155C108.39 323.297 108.412 323.438 108.461 323.571C108.511 323.704 108.586 323.826 108.683 323.93C108.78 324.034 108.896 324.118 109.025 324.176C109.155 324.235 109.294 324.267 109.436 324.271L109.479 324.273Z" fill="url(#paint24_linear)"/>
<path d="M107.139 323.733C107.281 323.733 107.418 323.677 107.519 323.576C107.619 323.475 107.676 323.339 107.676 323.197V310.046C107.676 309.903 107.619 309.767 107.519 309.666C107.418 309.565 107.281 309.509 107.139 309.509C106.996 309.509 106.86 309.565 106.759 309.666C106.658 309.767 106.602 309.903 106.602 310.046V323.197C106.602 323.339 106.658 323.475 106.759 323.576C106.86 323.677 106.996 323.733 107.139 323.733Z" fill="url(#paint25_linear)"/>
<path d="M105.25 323.733C105.391 323.733 105.526 323.678 105.626 323.579C105.727 323.481 105.785 323.347 105.787 323.206C105.89 318.634 106.132 311.167 106.348 310.27C106.41 310.164 106.435 310.041 106.417 309.92C106.399 309.799 106.341 309.688 106.251 309.604C106.162 309.521 106.046 309.471 105.924 309.462C105.802 309.453 105.681 309.486 105.58 309.556C105.286 309.748 105.007 309.93 104.707 323.18C104.705 323.251 104.717 323.322 104.743 323.389C104.768 323.455 104.806 323.516 104.856 323.567C104.905 323.618 104.963 323.66 105.029 323.688C105.094 323.717 105.164 323.732 105.235 323.733H105.25Z" fill="url(#paint26_linear)"/>
<path d="M120.007 324.931C120.283 324.931 120.549 324.825 120.749 324.634C120.949 324.444 121.068 324.184 121.081 323.908L121.801 310.093C121.816 309.807 121.716 309.527 121.524 309.314C121.332 309.102 121.064 308.974 120.778 308.959C120.493 308.948 120.215 309.049 120.003 309.24C119.791 309.431 119.662 309.697 119.644 309.981L118.923 323.797C118.909 324.082 119.009 324.362 119.2 324.575C119.392 324.787 119.661 324.915 119.947 324.931H120.007Z" fill="url(#paint27_linear)"/>
<path d="M110.138 281.228V239.485C110.14 236.851 109.101 234.323 107.247 232.449C105.394 230.576 102.876 229.509 100.24 229.48C83.7688 229.3 49.7984 229.291 22.0041 231.627C20.1714 231.782 18.4593 232.604 17.1916 233.935C15.9238 235.267 15.1884 237.017 15.1244 238.853L12.5258 279.215C12.4798 280.483 12.6869 281.747 13.1351 282.934C13.5833 284.121 14.2636 285.207 15.1363 286.128C16.009 287.05 17.0566 287.788 18.218 288.3C19.3794 288.813 20.6313 289.089 21.9007 289.113L100.571 290.608C101.819 290.631 103.059 290.406 104.218 289.945C105.378 289.485 106.434 288.797 107.325 287.924C108.216 287.051 108.923 286.009 109.406 284.859C109.889 283.709 110.138 282.475 110.138 281.228Z" fill="#EF9F37"/>
<path d="M100.598 244.002C100.668 247.554 100.564 253.189 100.476 256.83C100.465 257.277 100.36 257.717 100.17 258.121C99.9787 258.526 99.7055 258.886 99.3676 259.18C99.0297 259.473 98.6343 259.693 98.2067 259.825C97.7791 259.957 97.3286 259.999 96.884 259.947L83.3326 258.361C82.9043 258.31 82.4905 258.174 82.1158 257.961C81.741 257.748 81.4129 257.461 81.151 257.119C80.889 256.777 80.6984 256.385 80.5906 255.968C80.4828 255.55 80.4599 255.116 80.5233 254.689L82.1844 243.6C82.2997 242.838 82.6843 242.143 83.2685 241.641C83.8527 241.138 84.5977 240.861 85.3685 240.861H97.3809C98.2218 240.86 99.0296 241.188 99.6311 241.776C100.233 242.363 100.58 243.162 100.598 244.002Z" fill="white"/>
<path opacity="0.37" d="M65.1733 265.021L53.8659 266.241C53.4942 266.281 53.1181 266.239 52.7643 266.118C52.4105 265.997 52.0876 265.8 51.8186 265.541C51.5495 265.281 51.3408 264.966 51.2073 264.617C51.0738 264.268 51.0186 263.894 51.0458 263.521L53.5181 229.912C58.2573 229.762 62.9333 229.652 67.4442 229.575V262.49C67.4433 263.117 67.2113 263.722 66.7924 264.189C66.3734 264.656 65.797 264.952 65.1733 265.021Z" fill="white"/>
<path d="M60.5386 259.196C60.5228 259.485 60.3966 259.758 60.1858 259.958C59.975 260.158 59.6956 260.269 59.4052 260.269H59.3381C59.1885 260.261 59.0419 260.224 58.9068 260.16C58.7717 260.095 58.6507 260.004 58.5509 259.893C58.451 259.781 58.3742 259.651 58.3249 259.51C58.2756 259.369 58.2548 259.219 58.2637 259.069L59.9679 229.735L62.2508 229.682L60.5386 259.196Z" fill="white"/>
<path d="M94.3286 254.59C94.4252 254.59 94.5183 254.554 94.5887 254.487C94.6591 254.421 94.7015 254.331 94.7073 254.235L95.2942 244.995C95.2976 244.946 95.2912 244.896 95.2752 244.848C95.2592 244.801 95.234 244.758 95.201 244.72C95.1681 244.683 95.128 244.652 95.0831 244.63C95.0382 244.608 94.9895 244.596 94.9397 244.593C94.8897 244.588 94.8393 244.594 94.7916 244.61C94.744 244.625 94.7 244.651 94.6623 244.684C94.6246 244.717 94.5941 244.757 94.5725 244.802C94.5509 244.848 94.5388 244.897 94.5368 244.947L93.9499 254.186C93.9469 254.236 93.9536 254.286 93.9698 254.333C93.986 254.38 94.0114 254.424 94.0444 254.461C94.0775 254.499 94.1176 254.529 94.1624 254.551C94.2073 254.573 94.256 254.586 94.3058 254.589L94.3286 254.59Z" fill="url(#paint28_linear)"/>
<path d="M93.1211 254.59C93.2196 254.59 93.3143 254.552 93.3852 254.484C93.4561 254.415 93.4976 254.322 93.5011 254.224L93.806 244.807C93.8092 244.707 93.7724 244.609 93.7037 244.536C93.635 244.462 93.5399 244.419 93.4393 244.416C93.3888 244.411 93.3379 244.417 93.2899 244.433C93.2418 244.45 93.1978 244.476 93.1608 244.511C93.1237 244.545 93.0944 244.587 93.0748 244.634C93.0553 244.681 93.0459 244.731 93.0472 244.782L92.7424 254.201C92.7391 254.302 92.7759 254.399 92.8446 254.473C92.9133 254.546 93.0084 254.589 93.109 254.593L93.1211 254.59Z" fill="url(#paint29_linear)"/>
<path d="M91.487 254.589C91.4367 254.586 91.3873 254.574 91.3417 254.553C91.2962 254.531 91.2554 254.501 91.2217 254.463C91.1881 254.426 91.1623 254.382 91.1458 254.334C91.1293 254.287 91.1225 254.236 91.1258 254.186C91.2762 251.023 91.5636 244.99 91.5676 244.784C91.5734 244.688 91.6158 244.597 91.6864 244.531C91.7569 244.464 91.8501 244.427 91.947 244.427C92.0439 244.427 92.1371 244.464 92.2076 244.531C92.2781 244.597 92.3206 244.688 92.3264 244.784C92.3264 244.941 91.9571 252.671 91.8832 254.22C91.8787 254.317 91.8368 254.409 91.7663 254.476C91.6957 254.543 91.602 254.581 91.5045 254.581L91.487 254.589Z" fill="url(#paint30_linear)"/>
<path d="M88.9713 254.969C89.1677 254.968 89.3564 254.892 89.4977 254.756C89.6389 254.619 89.7217 254.433 89.7287 254.237C90.0496 245.112 89.9973 244.908 89.9556 244.773C89.9002 244.593 89.78 244.441 89.6185 244.345C89.457 244.249 89.2656 244.217 89.0816 244.254C88.8975 244.292 88.7339 244.396 88.6224 244.547C88.511 244.698 88.4597 244.885 88.4784 245.072C88.5026 245.621 88.3334 250.928 88.2192 254.185C88.2157 254.284 88.2317 254.383 88.2665 254.477C88.3013 254.57 88.3541 254.655 88.4219 254.728C88.4898 254.801 88.5713 254.86 88.6619 254.901C88.7525 254.942 88.8503 254.965 88.9498 254.969H88.9713Z" fill="url(#paint31_linear)"/>
<path d="M87.3332 254.59C87.383 254.59 87.4324 254.58 87.4784 254.561C87.5244 254.542 87.5662 254.514 87.6014 254.479C87.6366 254.443 87.6645 254.402 87.6834 254.355C87.7024 254.309 87.712 254.26 87.7119 254.21V244.971C87.7061 244.874 87.6636 244.784 87.5931 244.717C87.5226 244.651 87.4294 244.614 87.3325 244.614C87.2356 244.614 87.1424 244.651 87.0719 244.717C87.0014 244.784 86.9589 244.874 86.9531 244.971V254.21C86.9531 254.311 86.9932 254.408 87.0644 254.479C87.1357 254.55 87.2324 254.59 87.3332 254.59Z" fill="url(#paint32_linear)"/>
<path d="M86.0077 254.59C86.1067 254.59 86.2019 254.551 86.2727 254.482C86.3435 254.413 86.3843 254.319 86.3864 254.22C86.4589 251.01 86.6281 245.765 86.7799 245.135C86.8212 245.061 86.8366 244.975 86.8236 244.892C86.8106 244.808 86.7699 244.731 86.708 244.674C86.6462 244.616 86.5667 244.58 86.4824 244.573C86.398 244.566 86.3136 244.587 86.2427 244.633C86.0359 244.767 85.8398 244.901 85.629 254.202C85.6268 254.303 85.6646 254.4 85.7341 254.473C85.8036 254.545 85.8991 254.588 85.9996 254.59H86.0077Z" fill="url(#paint33_linear)"/>
<path d="M96.3678 255.432C96.5622 255.432 96.7492 255.357 96.8901 255.223C97.031 255.089 97.1152 254.907 97.1252 254.712L97.6301 245.01C97.6403 244.81 97.5706 244.613 97.4362 244.464C97.3017 244.315 97.1136 244.225 96.913 244.214C96.7126 244.207 96.5171 244.277 96.3682 244.411C96.2192 244.546 96.1284 244.732 96.1153 244.932L95.6104 254.635C95.6001 254.835 95.67 255.032 95.8048 255.181C95.9395 255.33 96.128 255.42 96.3288 255.43L96.3678 255.432Z" fill="url(#paint34_linear)"/>
<defs>
<linearGradient id="paint0_linear" x1="399.166" y1="502.125" x2="-26.4112" y2="-143.161" gradientUnits="userSpaceOnUse">
<stop stop-color="#09005D"/>
<stop offset="1" stop-color="#1A0F91"/>
</linearGradient>
<linearGradient id="paint1_linear" x1="177.125" y1="27.0366" x2="214.575" y2="27.0366" gradientUnits="userSpaceOnUse">
<stop stop-color="#4F52FF"/>
<stop offset="1" stop-color="#4042E2"/>
</linearGradient>
<linearGradient id="paint2_linear" x1="181.319" y1="288.679" x2="382.162" y2="42.5148" gradientUnits="userSpaceOnUse">
<stop stop-color="#E1473D"/>
<stop offset="1" stop-color="#E9605A"/>
</linearGradient>
<linearGradient id="paint3_linear" x1="177.014" y1="230.283" x2="199.425" y2="169.712" gradientUnits="userSpaceOnUse">
<stop stop-color="#FEBBBA"/>
<stop offset="1" stop-color="#FF928E"/>
</linearGradient>
<linearGradient id="paint4_linear" x1="530991" y1="180124" x2="506351" y2="187865" gradientUnits="userSpaceOnUse">
<stop stop-color="#FEBBBA"/>
<stop offset="1" stop-color="#FF928E"/>
</linearGradient>
<linearGradient id="paint5_linear" x1="121256" y1="29867.5" x2="111641" y2="67297.1" gradientUnits="userSpaceOnUse">
<stop stop-color="#09005D"/>
<stop offset="1" stop-color="#1A0F91"/>
</linearGradient>
<linearGradient id="paint6_linear" x1="121246" y1="44305.8" x2="114816" y2="45294.4" gradientUnits="userSpaceOnUse">
<stop stop-color="#FEBBBA"/>
<stop offset="1" stop-color="#FF928E"/>
</linearGradient>
<linearGradient id="paint7_linear" x1="59609.6" y1="211381" x2="220103" y2="106672" gradientUnits="userSpaceOnUse">
<stop stop-color="#E1473D"/>
<stop offset="1" stop-color="#E9605A"/>
</linearGradient>
<linearGradient id="paint8_linear" x1="117.395" y1="138.957" x2="169.882" y2="368.41" gradientUnits="userSpaceOnUse">
<stop stop-color="#FF928E"/>
<stop offset="1" stop-color="#FE7062"/>
</linearGradient>
<linearGradient id="paint9_linear" x1="81450.5" y1="74813.7" x2="86026.4" y2="102064" gradientUnits="userSpaceOnUse">
<stop stop-color="#FEBBBA"/>
<stop offset="1" stop-color="#FF928E"/>
</linearGradient>
<linearGradient id="paint10_linear" x1="51809.6" y1="29027.4" x2="53606.5" y2="41225.4" gradientUnits="userSpaceOnUse">
<stop stop-color="#FEBBBA"/>
<stop offset="1" stop-color="#FF928E"/>
</linearGradient>
<linearGradient id="paint11_linear" x1="143911" y1="46432.9" x2="145713" y2="32904.9" gradientUnits="userSpaceOnUse">
<stop stop-color="#4F52FF"/>
<stop offset="1" stop-color="#4042E2"/>
</linearGradient>
<linearGradient id="paint12_linear" x1="56625.2" y1="27978.5" x2="58252.8" y2="20316.7" gradientUnits="userSpaceOnUse">
<stop stop-color="#4F52FF"/>
<stop offset="1" stop-color="#4042E2"/>
</linearGradient>
<linearGradient id="paint13_linear" x1="315238" y1="206222" x2="466445" y2="79285.1" gradientUnits="userSpaceOnUse">
<stop stop-color="#4F52FF"/>
<stop offset="1" stop-color="#4042E2"/>
</linearGradient>
<linearGradient id="paint14_linear" x1="103716" y1="106781" x2="102164" y2="141413" gradientUnits="userSpaceOnUse">
<stop stop-color="#4F52FF"/>
<stop offset="1" stop-color="#4042E2"/>
</linearGradient>
<linearGradient id="paint15_linear" x1="146405" y1="20846" x2="146977" y2="11397.6" gradientUnits="userSpaceOnUse">
<stop stop-color="#4F52FF"/>
<stop offset="1" stop-color="#4042E2"/>
</linearGradient>
<linearGradient id="paint16_linear" x1="36359.7" y1="15217.9" x2="38500.2" y2="11974.5" gradientUnits="userSpaceOnUse">
<stop stop-color="#4F52FF"/>
<stop offset="1" stop-color="#4042E2"/>
</linearGradient>
<linearGradient id="paint17_linear" x1="11698.3" y1="3922.69" x2="12107.4" y2="3922.69" gradientUnits="userSpaceOnUse">
<stop stop-color="#4F52FF"/>
<stop offset="1" stop-color="#4042E2"/>
</linearGradient>
<linearGradient id="paint18_linear" x1="53794.7" y1="22172.7" x2="23292" y2="31567.9" gradientUnits="userSpaceOnUse">
<stop stop-color="#4F52FF"/>
<stop offset="1" stop-color="#4042E2"/>
</linearGradient>
<linearGradient id="paint19_linear" x1="23482.3" y1="17915.6" x2="17269.3" y2="24870.5" gradientUnits="userSpaceOnUse">
<stop stop-color="#4F52FF"/>
<stop offset="1" stop-color="#4042E2"/>
</linearGradient>
<linearGradient id="paint20_linear" x1="12942.1" y1="19826.3" x2="15654.3" y2="18752.1" gradientUnits="userSpaceOnUse">
<stop stop-color="#4F52FF"/>
<stop offset="1" stop-color="#4042E2"/>
</linearGradient>
<linearGradient id="paint21_linear" x1="4125.93" y1="32778.8" x2="5602.38" y2="33067.5" gradientUnits="userSpaceOnUse">
<stop stop-color="#09005D"/>
<stop offset="1" stop-color="#1A0F91"/>
</linearGradient>
<linearGradient id="paint22_linear" x1="3187.5" y1="33462.4" x2="4373.44" y2="33642.6" gradientUnits="userSpaceOnUse">
<stop stop-color="#09005D"/>
<stop offset="1" stop-color="#1A0F91"/>
</linearGradient>
<linearGradient id="paint23_linear" x1="3605.01" y1="33568.8" x2="4930.09" y2="33795.2" gradientUnits="userSpaceOnUse">
<stop stop-color="#09005D"/>
<stop offset="1" stop-color="#1A0F91"/>
</linearGradient>
<linearGradient id="paint24_linear" x1="5446.67" y1="35825.9" x2="7358.35" y2="36281.6" gradientUnits="userSpaceOnUse">
<stop stop-color="#09005D"/>
<stop offset="1" stop-color="#1A0F91"/>
</linearGradient>
<linearGradient id="paint25_linear" x1="2129.55" y1="33276" x2="2979.32" y2="33369.2" gradientUnits="userSpaceOnUse">
<stop stop-color="#09005D"/>
<stop offset="1" stop-color="#1A0F91"/>
</linearGradient>
<linearGradient id="paint26_linear" x1="3571.74" y1="33464.8" x2="4904.34" y2="33697.6" gradientUnits="userSpaceOnUse">
<stop stop-color="#09005D"/>
<stop offset="1" stop-color="#1A0F91"/>
</linearGradient>
<linearGradient id="paint27_linear" x1="6402.43" y1="36604.5" x2="8560.29" y2="37170" gradientUnits="userSpaceOnUse">
<stop stop-color="#09005D"/>
<stop offset="1" stop-color="#1A0F91"/>
</linearGradient>
<linearGradient id="paint28_linear" x1="2618.6" y1="18273" x2="3347.36" y2="18415.5" gradientUnits="userSpaceOnUse">
<stop stop-color="#09005D"/>
<stop offset="1" stop-color="#1A0F91"/>
</linearGradient>
<linearGradient id="paint29_linear" x1="2002.84" y1="18642.8" x2="2587.51" y2="18731.6" gradientUnits="userSpaceOnUse">
<stop stop-color="#09005D"/>
<stop offset="1" stop-color="#1A0F91"/>
</linearGradient>
<linearGradient id="paint30_linear" x1="2291.46" y1="18666.2" x2="2947.49" y2="18779" gradientUnits="userSpaceOnUse">
<stop stop-color="#09005D"/>
<stop offset="1" stop-color="#1A0F91"/>
</linearGradient>
<linearGradient id="paint31_linear" x1="3488.73" y1="19795.7" x2="4428.85" y2="20020.8" gradientUnits="userSpaceOnUse">
<stop stop-color="#09005D"/>
<stop offset="1" stop-color="#1A0F91"/>
</linearGradient>
<linearGradient id="paint32_linear" x1="1327.05" y1="18485.1" x2="1748.46" y2="18531.7" gradientUnits="userSpaceOnUse">
<stop stop-color="#09005D"/>
<stop offset="1" stop-color="#1A0F91"/>
</linearGradient>
<linearGradient id="paint33_linear" x1="2258.63" y1="18600.8" x2="2913" y2="18714.6" gradientUnits="userSpaceOnUse">
<stop stop-color="#09005D"/>
<stop offset="1" stop-color="#1A0F91"/>
</linearGradient>
<linearGradient id="paint34_linear" x1="4098.28" y1="20398.8" x2="5161.93" y2="20677.4" gradientUnits="userSpaceOnUse">
<stop stop-color="#09005D"/>
<stop offset="1" stop-color="#1A0F91"/>
</linearGradient>
</defs>
</svg>
