<svg width="20" height="10" viewBox="0 0 20 10" fill="none" xmlns="http://www.w3.org/2000/svg">
<path d="M10.0836 9.99635C10.2889 9.97807 10.4833 9.89345 10.6386 9.75469L19.6405 1.77237C19.7418 1.68794 19.8256 1.58345 19.8867 1.46514C19.9479 1.34683 19.9852 1.21712 19.9964 1.08372C20.0076 0.950319 19.9926 0.815967 19.9521 0.688663C19.9116 0.561358 19.8466 0.443707 19.7608 0.342713C19.6751 0.24172 19.5704 0.159451 19.453 0.100806C19.3356 0.0421619 19.2079 0.00834084 19.0775 0.00135803C18.9471 -0.00562477 18.8166 0.0143747 18.6939 0.0601625C18.5712 0.10595 18.4587 0.176591 18.3632 0.267879L9.99999 7.68116L1.63682 0.267879C1.54128 0.176591 1.42881 0.10595 1.30609 0.0601625C1.18337 0.0143747 1.05292 -0.00562477 0.922503 0.00135803C0.792089 0.00834084 0.66439 0.0421619 0.546991 0.100806C0.429592 0.159451 0.324905 0.24172 0.239163 0.342713C0.153422 0.443707 0.088371 0.561358 0.0479033 0.688663C0.00743547 0.815967 -0.00762474 0.950319 0.00360753 1.08372C0.0148398 1.21712 0.0521365 1.34683 0.113285 1.46514C0.174434 1.58345 0.258178 1.68794 0.359533 1.77237L9.36135 9.75469C9.45979 9.84257 9.57447 9.90925 9.69855 9.95077C9.82264 9.99228 9.95359 10.0078 10.0836 9.99635Z" fill="#C4C4C4"/>
</svg>
